<?xml version="1.0" encoding="utf-8" standalone="no"?>
<!DOCTYPE svg PUBLIC "-//W3C//DTD SVG 1.1//EN"
  "http://www.w3.org/Graphics/SVG/1.1/DTD/svg11.dtd">
<svg xmlns:xlink="http://www.w3.org/1999/xlink" width="576pt" height="432pt" viewBox="0 0 576 432" xmlns="http://www.w3.org/2000/svg" version="1.1">
 <metadata>
  <rdf:RDF xmlns:dc="http://purl.org/dc/elements/1.1/" xmlns:cc="http://creativecommons.org/ns#" xmlns:rdf="http://www.w3.org/1999/02/22-rdf-syntax-ns#">
   <cc:Work>
    <dc:type rdf:resource="http://purl.org/dc/dcmitype/StillImage"/>
    <dc:date>2025-11-15T16:07:55.037536</dc:date>
    <dc:format>image/svg+xml</dc:format>
    <dc:creator>
     <cc:Agent>
      <dc:title>Matplotlib v3.10.1, https://matplotlib.org/</dc:title>
     </cc:Agent>
    </dc:creator>
   </cc:Work>
  </rdf:RDF>
 </metadata>
 <defs>
  <style type="text/css">*{stroke-linejoin: round; stroke-linecap: butt}</style>
 </defs>
 <g id="figure_1">
  <g id="patch_1">
   <path d="M 0 432 
L 576 432 
L 576 0 
L 0 0 
z
" style="fill: #ffffff"/>
  </g>
  <g id="axes_1">
   <g id="patch_2">
    <path d="M 47.72 390.04 
L 557.28 390.04 
L 557.28 26.88 
L 47.72 26.88 
z
" style="fill: #ffffff"/>
   </g>
   <g id="matplotlib.axis_1">
    <g id="xtick_1">
     <g id="line2d_1">
      <path d="M 47.72 390.04 
L 47.72 26.88 
" clip-path="url(#p5664f2dbe8)" style="fill: none; stroke: #b0b0b0; stroke-width: 0.8; stroke-linecap: square"/>
     </g>
     <g id="line2d_2">
      <defs>
       <path id="md3b55b96d7" d="M 0 0 
L 0 3.5 
" style="stroke: #000000; stroke-width: 0.8"/>
      </defs>
      <g>
       <use xlink:href="#md3b55b96d7" x="47.72" y="390.04" style="stroke: #000000; stroke-width: 0.8"/>
      </g>
     </g>
     <g id="text_1">
      <!-- 0.0 -->
      <g transform="translate(39.768437 404.638438) scale(0.1 -0.1)">
       <defs>
        <path id="DejaVuSans-30" d="M 2034 4250 
Q 1547 4250 1301 3770 
Q 1056 3291 1056 2328 
Q 1056 1369 1301 889 
Q 1547 409 2034 409 
Q 2525 409 2770 889 
Q 3016 1369 3016 2328 
Q 3016 3291 2770 3770 
Q 2525 4250 2034 4250 
z
M 2034 4750 
Q 2819 4750 3233 4129 
Q 3647 3509 3647 2328 
Q 3647 1150 3233 529 
Q 2819 -91 2034 -91 
Q 1250 -91 836 529 
Q 422 1150 422 2328 
Q 422 3509 836 4129 
Q 1250 4750 2034 4750 
z
" transform="scale(0.015625)"/>
        <path id="DejaVuSans-2e" d="M 684 794 
L 1344 794 
L 1344 0 
L 684 0 
L 684 794 
z
" transform="scale(0.015625)"/>
       </defs>
       <use xlink:href="#DejaVuSans-30"/>
       <use xlink:href="#DejaVuSans-2e" transform="translate(63.623047 0)"/>
       <use xlink:href="#DejaVuSans-30" transform="translate(95.410156 0)"/>
      </g>
     </g>
    </g>
    <g id="xtick_2">
     <g id="line2d_3">
      <path d="M 149.632 390.04 
L 149.632 26.88 
" clip-path="url(#p5664f2dbe8)" style="fill: none; stroke: #b0b0b0; stroke-width: 0.8; stroke-linecap: square"/>
     </g>
     <g id="line2d_4">
      <g>
       <use xlink:href="#md3b55b96d7" x="149.632" y="390.04" style="stroke: #000000; stroke-width: 0.8"/>
      </g>
     </g>
     <g id="text_2">
      <!-- 0.2 -->
      <g transform="translate(141.680438 404.638438) scale(0.1 -0.1)">
       <defs>
        <path id="DejaVuSans-32" d="M 1228 531 
L 3431 531 
L 3431 0 
L 469 0 
L 469 531 
Q 828 903 1448 1529 
Q 2069 2156 2228 2338 
Q 2531 2678 2651 2914 
Q 2772 3150 2772 3378 
Q 2772 3750 2511 3984 
Q 2250 4219 1831 4219 
Q 1534 4219 1204 4116 
Q 875 4013 500 3803 
L 500 4441 
Q 881 4594 1212 4672 
Q 1544 4750 1819 4750 
Q 2544 4750 2975 4387 
Q 3406 4025 3406 3419 
Q 3406 3131 3298 2873 
Q 3191 2616 2906 2266 
Q 2828 2175 2409 1742 
Q 1991 1309 1228 531 
z
" transform="scale(0.015625)"/>
       </defs>
       <use xlink:href="#DejaVuSans-30"/>
       <use xlink:href="#DejaVuSans-2e" transform="translate(63.623047 0)"/>
       <use xlink:href="#DejaVuSans-32" transform="translate(95.410156 0)"/>
      </g>
     </g>
    </g>
    <g id="xtick_3">
     <g id="line2d_5">
      <path d="M 251.544 390.04 
L 251.544 26.88 
" clip-path="url(#p5664f2dbe8)" style="fill: none; stroke: #b0b0b0; stroke-width: 0.8; stroke-linecap: square"/>
     </g>
     <g id="line2d_6">
      <g>
       <use xlink:href="#md3b55b96d7" x="251.544" y="390.04" style="stroke: #000000; stroke-width: 0.8"/>
      </g>
     </g>
     <g id="text_3">
      <!-- 0.4 -->
      <g transform="translate(243.592437 404.638438) scale(0.1 -0.1)">
       <defs>
        <path id="DejaVuSans-34" d="M 2419 4116 
L 825 1625 
L 2419 1625 
L 2419 4116 
z
M 2253 4666 
L 3047 4666 
L 3047 1625 
L 3713 1625 
L 3713 1100 
L 3047 1100 
L 3047 0 
L 2419 0 
L 2419 1100 
L 313 1100 
L 313 1709 
L 2253 4666 
z
" transform="scale(0.015625)"/>
       </defs>
       <use xlink:href="#DejaVuSans-30"/>
       <use xlink:href="#DejaVuSans-2e" transform="translate(63.623047 0)"/>
       <use xlink:href="#DejaVuSans-34" transform="translate(95.410156 0)"/>
      </g>
     </g>
    </g>
    <g id="xtick_4">
     <g id="line2d_7">
      <path d="M 353.456 390.04 
L 353.456 26.88 
" clip-path="url(#p5664f2dbe8)" style="fill: none; stroke: #b0b0b0; stroke-width: 0.8; stroke-linecap: square"/>
     </g>
     <g id="line2d_8">
      <g>
       <use xlink:href="#md3b55b96d7" x="353.456" y="390.04" style="stroke: #000000; stroke-width: 0.8"/>
      </g>
     </g>
     <g id="text_4">
      <!-- 0.6 -->
      <g transform="translate(345.504437 404.638438) scale(0.1 -0.1)">
       <defs>
        <path id="DejaVuSans-36" d="M 2113 2584 
Q 1688 2584 1439 2293 
Q 1191 2003 1191 1497 
Q 1191 994 1439 701 
Q 1688 409 2113 409 
Q 2538 409 2786 701 
Q 3034 994 3034 1497 
Q 3034 2003 2786 2293 
Q 2538 2584 2113 2584 
z
M 3366 4563 
L 3366 3988 
Q 3128 4100 2886 4159 
Q 2644 4219 2406 4219 
Q 1781 4219 1451 3797 
Q 1122 3375 1075 2522 
Q 1259 2794 1537 2939 
Q 1816 3084 2150 3084 
Q 2853 3084 3261 2657 
Q 3669 2231 3669 1497 
Q 3669 778 3244 343 
Q 2819 -91 2113 -91 
Q 1303 -91 875 529 
Q 447 1150 447 2328 
Q 447 3434 972 4092 
Q 1497 4750 2381 4750 
Q 2619 4750 2861 4703 
Q 3103 4656 3366 4563 
z
" transform="scale(0.015625)"/>
       </defs>
       <use xlink:href="#DejaVuSans-30"/>
       <use xlink:href="#DejaVuSans-2e" transform="translate(63.623047 0)"/>
       <use xlink:href="#DejaVuSans-36" transform="translate(95.410156 0)"/>
      </g>
     </g>
    </g>
    <g id="xtick_5">
     <g id="line2d_9">
      <path d="M 455.368 390.04 
L 455.368 26.88 
" clip-path="url(#p5664f2dbe8)" style="fill: none; stroke: #b0b0b0; stroke-width: 0.8; stroke-linecap: square"/>
     </g>
     <g id="line2d_10">
      <g>
       <use xlink:href="#md3b55b96d7" x="455.368" y="390.04" style="stroke: #000000; stroke-width: 0.8"/>
      </g>
     </g>
     <g id="text_5">
      <!-- 0.8 -->
      <g transform="translate(447.416437 404.638438) scale(0.1 -0.1)">
       <defs>
        <path id="DejaVuSans-38" d="M 2034 2216 
Q 1584 2216 1326 1975 
Q 1069 1734 1069 1313 
Q 1069 891 1326 650 
Q 1584 409 2034 409 
Q 2484 409 2743 651 
Q 3003 894 3003 1313 
Q 3003 1734 2745 1975 
Q 2488 2216 2034 2216 
z
M 1403 2484 
Q 997 2584 770 2862 
Q 544 3141 544 3541 
Q 544 4100 942 4425 
Q 1341 4750 2034 4750 
Q 2731 4750 3128 4425 
Q 3525 4100 3525 3541 
Q 3525 3141 3298 2862 
Q 3072 2584 2669 2484 
Q 3125 2378 3379 2068 
Q 3634 1759 3634 1313 
Q 3634 634 3220 271 
Q 2806 -91 2034 -91 
Q 1263 -91 848 271 
Q 434 634 434 1313 
Q 434 1759 690 2068 
Q 947 2378 1403 2484 
z
M 1172 3481 
Q 1172 3119 1398 2916 
Q 1625 2713 2034 2713 
Q 2441 2713 2670 2916 
Q 2900 3119 2900 3481 
Q 2900 3844 2670 4047 
Q 2441 4250 2034 4250 
Q 1625 4250 1398 4047 
Q 1172 3844 1172 3481 
z
" transform="scale(0.015625)"/>
       </defs>
       <use xlink:href="#DejaVuSans-30"/>
       <use xlink:href="#DejaVuSans-2e" transform="translate(63.623047 0)"/>
       <use xlink:href="#DejaVuSans-38" transform="translate(95.410156 0)"/>
      </g>
     </g>
    </g>
    <g id="xtick_6">
     <g id="line2d_11">
      <path d="M 557.28 390.04 
L 557.28 26.88 
" clip-path="url(#p5664f2dbe8)" style="fill: none; stroke: #b0b0b0; stroke-width: 0.8; stroke-linecap: square"/>
     </g>
     <g id="line2d_12">
      <g>
       <use xlink:href="#md3b55b96d7" x="557.28" y="390.04" style="stroke: #000000; stroke-width: 0.8"/>
      </g>
     </g>
     <g id="text_6">
      <!-- 1.0 -->
      <g transform="translate(549.328437 404.638438) scale(0.1 -0.1)">
       <defs>
        <path id="DejaVuSans-31" d="M 794 531 
L 1825 531 
L 1825 4091 
L 703 3866 
L 703 4441 
L 1819 4666 
L 2450 4666 
L 2450 531 
L 3481 531 
L 3481 0 
L 794 0 
L 794 531 
z
" transform="scale(0.015625)"/>
       </defs>
       <use xlink:href="#DejaVuSans-31"/>
       <use xlink:href="#DejaVuSans-2e" transform="translate(63.623047 0)"/>
       <use xlink:href="#DejaVuSans-30" transform="translate(95.410156 0)"/>
      </g>
     </g>
    </g>
    <g id="text_7">
     <!-- False Positive Rate -->
     <g transform="translate(256.033594 418.316562) scale(0.1 -0.1)">
      <defs>
       <path id="DejaVuSans-46" d="M 628 4666 
L 3309 4666 
L 3309 4134 
L 1259 4134 
L 1259 2759 
L 3109 2759 
L 3109 2228 
L 1259 2228 
L 1259 0 
L 628 0 
L 628 4666 
z
" transform="scale(0.015625)"/>
       <path id="DejaVuSans-61" d="M 2194 1759 
Q 1497 1759 1228 1600 
Q 959 1441 959 1056 
Q 959 750 1161 570 
Q 1363 391 1709 391 
Q 2188 391 2477 730 
Q 2766 1069 2766 1631 
L 2766 1759 
L 2194 1759 
z
M 3341 1997 
L 3341 0 
L 2766 0 
L 2766 531 
Q 2569 213 2275 61 
Q 1981 -91 1556 -91 
Q 1019 -91 701 211 
Q 384 513 384 1019 
Q 384 1609 779 1909 
Q 1175 2209 1959 2209 
L 2766 2209 
L 2766 2266 
Q 2766 2663 2505 2880 
Q 2244 3097 1772 3097 
Q 1472 3097 1187 3025 
Q 903 2953 641 2809 
L 641 3341 
Q 956 3463 1253 3523 
Q 1550 3584 1831 3584 
Q 2591 3584 2966 3190 
Q 3341 2797 3341 1997 
z
" transform="scale(0.015625)"/>
       <path id="DejaVuSans-6c" d="M 603 4863 
L 1178 4863 
L 1178 0 
L 603 0 
L 603 4863 
z
" transform="scale(0.015625)"/>
       <path id="DejaVuSans-73" d="M 2834 3397 
L 2834 2853 
Q 2591 2978 2328 3040 
Q 2066 3103 1784 3103 
Q 1356 3103 1142 2972 
Q 928 2841 928 2578 
Q 928 2378 1081 2264 
Q 1234 2150 1697 2047 
L 1894 2003 
Q 2506 1872 2764 1633 
Q 3022 1394 3022 966 
Q 3022 478 2636 193 
Q 2250 -91 1575 -91 
Q 1294 -91 989 -36 
Q 684 19 347 128 
L 347 722 
Q 666 556 975 473 
Q 1284 391 1588 391 
Q 1994 391 2212 530 
Q 2431 669 2431 922 
Q 2431 1156 2273 1281 
Q 2116 1406 1581 1522 
L 1381 1569 
Q 847 1681 609 1914 
Q 372 2147 372 2553 
Q 372 3047 722 3315 
Q 1072 3584 1716 3584 
Q 2034 3584 2315 3537 
Q 2597 3491 2834 3397 
z
" transform="scale(0.015625)"/>
       <path id="DejaVuSans-65" d="M 3597 1894 
L 3597 1613 
L 953 1613 
Q 991 1019 1311 708 
Q 1631 397 2203 397 
Q 2534 397 2845 478 
Q 3156 559 3463 722 
L 3463 178 
Q 3153 47 2828 -22 
Q 2503 -91 2169 -91 
Q 1331 -91 842 396 
Q 353 884 353 1716 
Q 353 2575 817 3079 
Q 1281 3584 2069 3584 
Q 2775 3584 3186 3129 
Q 3597 2675 3597 1894 
z
M 3022 2063 
Q 3016 2534 2758 2815 
Q 2500 3097 2075 3097 
Q 1594 3097 1305 2825 
Q 1016 2553 972 2059 
L 3022 2063 
z
" transform="scale(0.015625)"/>
       <path id="DejaVuSans-20" transform="scale(0.015625)"/>
       <path id="DejaVuSans-50" d="M 1259 4147 
L 1259 2394 
L 2053 2394 
Q 2494 2394 2734 2622 
Q 2975 2850 2975 3272 
Q 2975 3691 2734 3919 
Q 2494 4147 2053 4147 
L 1259 4147 
z
M 628 4666 
L 2053 4666 
Q 2838 4666 3239 4311 
Q 3641 3956 3641 3272 
Q 3641 2581 3239 2228 
Q 2838 1875 2053 1875 
L 1259 1875 
L 1259 0 
L 628 0 
L 628 4666 
z
" transform="scale(0.015625)"/>
       <path id="DejaVuSans-6f" d="M 1959 3097 
Q 1497 3097 1228 2736 
Q 959 2375 959 1747 
Q 959 1119 1226 758 
Q 1494 397 1959 397 
Q 2419 397 2687 759 
Q 2956 1122 2956 1747 
Q 2956 2369 2687 2733 
Q 2419 3097 1959 3097 
z
M 1959 3584 
Q 2709 3584 3137 3096 
Q 3566 2609 3566 1747 
Q 3566 888 3137 398 
Q 2709 -91 1959 -91 
Q 1206 -91 779 398 
Q 353 888 353 1747 
Q 353 2609 779 3096 
Q 1206 3584 1959 3584 
z
" transform="scale(0.015625)"/>
       <path id="DejaVuSans-69" d="M 603 3500 
L 1178 3500 
L 1178 0 
L 603 0 
L 603 3500 
z
M 603 4863 
L 1178 4863 
L 1178 4134 
L 603 4134 
L 603 4863 
z
" transform="scale(0.015625)"/>
       <path id="DejaVuSans-74" d="M 1172 4494 
L 1172 3500 
L 2356 3500 
L 2356 3053 
L 1172 3053 
L 1172 1153 
Q 1172 725 1289 603 
Q 1406 481 1766 481 
L 2356 481 
L 2356 0 
L 1766 0 
Q 1100 0 847 248 
Q 594 497 594 1153 
L 594 3053 
L 172 3053 
L 172 3500 
L 594 3500 
L 594 4494 
L 1172 4494 
z
" transform="scale(0.015625)"/>
       <path id="DejaVuSans-76" d="M 191 3500 
L 800 3500 
L 1894 563 
L 2988 3500 
L 3597 3500 
L 2284 0 
L 1503 0 
L 191 3500 
z
" transform="scale(0.015625)"/>
       <path id="DejaVuSans-52" d="M 2841 2188 
Q 3044 2119 3236 1894 
Q 3428 1669 3622 1275 
L 4263 0 
L 3584 0 
L 2988 1197 
Q 2756 1666 2539 1819 
Q 2322 1972 1947 1972 
L 1259 1972 
L 1259 0 
L 628 0 
L 628 4666 
L 2053 4666 
Q 2853 4666 3247 4331 
Q 3641 3997 3641 3322 
Q 3641 2881 3436 2590 
Q 3231 2300 2841 2188 
z
M 1259 4147 
L 1259 2491 
L 2053 2491 
Q 2509 2491 2742 2702 
Q 2975 2913 2975 3322 
Q 2975 3731 2742 3939 
Q 2509 4147 2053 4147 
L 1259 4147 
z
" transform="scale(0.015625)"/>
      </defs>
      <use xlink:href="#DejaVuSans-46"/>
      <use xlink:href="#DejaVuSans-61" transform="translate(48.394531 0)"/>
      <use xlink:href="#DejaVuSans-6c" transform="translate(109.673828 0)"/>
      <use xlink:href="#DejaVuSans-73" transform="translate(137.457031 0)"/>
      <use xlink:href="#DejaVuSans-65" transform="translate(189.556641 0)"/>
      <use xlink:href="#DejaVuSans-20" transform="translate(251.080078 0)"/>
      <use xlink:href="#DejaVuSans-50" transform="translate(282.867188 0)"/>
      <use xlink:href="#DejaVuSans-6f" transform="translate(339.544922 0)"/>
      <use xlink:href="#DejaVuSans-73" transform="translate(400.726562 0)"/>
      <use xlink:href="#DejaVuSans-69" transform="translate(452.826172 0)"/>
      <use xlink:href="#DejaVuSans-74" transform="translate(480.609375 0)"/>
      <use xlink:href="#DejaVuSans-69" transform="translate(519.818359 0)"/>
      <use xlink:href="#DejaVuSans-76" transform="translate(547.601562 0)"/>
      <use xlink:href="#DejaVuSans-65" transform="translate(606.78125 0)"/>
      <use xlink:href="#DejaVuSans-20" transform="translate(668.304688 0)"/>
      <use xlink:href="#DejaVuSans-52" transform="translate(700.091797 0)"/>
      <use xlink:href="#DejaVuSans-61" transform="translate(767.324219 0)"/>
      <use xlink:href="#DejaVuSans-74" transform="translate(828.603516 0)"/>
      <use xlink:href="#DejaVuSans-65" transform="translate(867.8125 0)"/>
     </g>
    </g>
   </g>
   <g id="matplotlib.axis_2">
    <g id="ytick_1">
     <g id="line2d_13">
      <path d="M 47.72 390.04 
L 557.28 390.04 
" clip-path="url(#p5664f2dbe8)" style="fill: none; stroke: #b0b0b0; stroke-width: 0.8; stroke-linecap: square"/>
     </g>
     <g id="line2d_14">
      <defs>
       <path id="m0a76fd6f9a" d="M 0 0 
L -3.5 0 
" style="stroke: #000000; stroke-width: 0.8"/>
      </defs>
      <g>
       <use xlink:href="#m0a76fd6f9a" x="47.72" y="390.04" style="stroke: #000000; stroke-width: 0.8"/>
      </g>
     </g>
     <g id="text_8">
      <!-- 0.0 -->
      <g transform="translate(24.816875 393.839219) scale(0.1 -0.1)">
       <use xlink:href="#DejaVuSans-30"/>
       <use xlink:href="#DejaVuSans-2e" transform="translate(63.623047 0)"/>
       <use xlink:href="#DejaVuSans-30" transform="translate(95.410156 0)"/>
      </g>
     </g>
    </g>
    <g id="ytick_2">
     <g id="line2d_15">
      <path d="M 47.72 317.408 
L 557.28 317.408 
" clip-path="url(#p5664f2dbe8)" style="fill: none; stroke: #b0b0b0; stroke-width: 0.8; stroke-linecap: square"/>
     </g>
     <g id="line2d_16">
      <g>
       <use xlink:href="#m0a76fd6f9a" x="47.72" y="317.408" style="stroke: #000000; stroke-width: 0.8"/>
      </g>
     </g>
     <g id="text_9">
      <!-- 0.2 -->
      <g transform="translate(24.816875 321.207219) scale(0.1 -0.1)">
       <use xlink:href="#DejaVuSans-30"/>
       <use xlink:href="#DejaVuSans-2e" transform="translate(63.623047 0)"/>
       <use xlink:href="#DejaVuSans-32" transform="translate(95.410156 0)"/>
      </g>
     </g>
    </g>
    <g id="ytick_3">
     <g id="line2d_17">
      <path d="M 47.72 244.776 
L 557.28 244.776 
" clip-path="url(#p5664f2dbe8)" style="fill: none; stroke: #b0b0b0; stroke-width: 0.8; stroke-linecap: square"/>
     </g>
     <g id="line2d_18">
      <g>
       <use xlink:href="#m0a76fd6f9a" x="47.72" y="244.776" style="stroke: #000000; stroke-width: 0.8"/>
      </g>
     </g>
     <g id="text_10">
      <!-- 0.4 -->
      <g transform="translate(24.816875 248.575219) scale(0.1 -0.1)">
       <use xlink:href="#DejaVuSans-30"/>
       <use xlink:href="#DejaVuSans-2e" transform="translate(63.623047 0)"/>
       <use xlink:href="#DejaVuSans-34" transform="translate(95.410156 0)"/>
      </g>
     </g>
    </g>
    <g id="ytick_4">
     <g id="line2d_19">
      <path d="M 47.72 172.144 
L 557.28 172.144 
" clip-path="url(#p5664f2dbe8)" style="fill: none; stroke: #b0b0b0; stroke-width: 0.8; stroke-linecap: square"/>
     </g>
     <g id="line2d_20">
      <g>
       <use xlink:href="#m0a76fd6f9a" x="47.72" y="172.144" style="stroke: #000000; stroke-width: 0.8"/>
      </g>
     </g>
     <g id="text_11">
      <!-- 0.6 -->
      <g transform="translate(24.816875 175.943219) scale(0.1 -0.1)">
       <use xlink:href="#DejaVuSans-30"/>
       <use xlink:href="#DejaVuSans-2e" transform="translate(63.623047 0)"/>
       <use xlink:href="#DejaVuSans-36" transform="translate(95.410156 0)"/>
      </g>
     </g>
    </g>
    <g id="ytick_5">
     <g id="line2d_21">
      <path d="M 47.72 99.512 
L 557.28 99.512 
" clip-path="url(#p5664f2dbe8)" style="fill: none; stroke: #b0b0b0; stroke-width: 0.8; stroke-linecap: square"/>
     </g>
     <g id="line2d_22">
      <g>
       <use xlink:href="#m0a76fd6f9a" x="47.72" y="99.512" style="stroke: #000000; stroke-width: 0.8"/>
      </g>
     </g>
     <g id="text_12">
      <!-- 0.8 -->
      <g transform="translate(24.816875 103.311219) scale(0.1 -0.1)">
       <use xlink:href="#DejaVuSans-30"/>
       <use xlink:href="#DejaVuSans-2e" transform="translate(63.623047 0)"/>
       <use xlink:href="#DejaVuSans-38" transform="translate(95.410156 0)"/>
      </g>
     </g>
    </g>
    <g id="ytick_6">
     <g id="line2d_23">
      <path d="M 47.72 26.88 
L 557.28 26.88 
" clip-path="url(#p5664f2dbe8)" style="fill: none; stroke: #b0b0b0; stroke-width: 0.8; stroke-linecap: square"/>
     </g>
     <g id="line2d_24">
      <g>
       <use xlink:href="#m0a76fd6f9a" x="47.72" y="26.88" style="stroke: #000000; stroke-width: 0.8"/>
      </g>
     </g>
     <g id="text_13">
      <!-- 1.0 -->
      <g transform="translate(24.816875 30.679219) scale(0.1 -0.1)">
       <use xlink:href="#DejaVuSans-31"/>
       <use xlink:href="#DejaVuSans-2e" transform="translate(63.623047 0)"/>
       <use xlink:href="#DejaVuSans-30" transform="translate(95.410156 0)"/>
      </g>
     </g>
    </g>
    <g id="text_14">
     <!-- True Positive Rate -->
     <g transform="translate(18.737187 252.989687) rotate(-90) scale(0.1 -0.1)">
      <defs>
       <path id="DejaVuSans-54" d="M -19 4666 
L 3928 4666 
L 3928 4134 
L 2272 4134 
L 2272 0 
L 1638 0 
L 1638 4134 
L -19 4134 
L -19 4666 
z
" transform="scale(0.015625)"/>
       <path id="DejaVuSans-72" d="M 2631 2963 
Q 2534 3019 2420 3045 
Q 2306 3072 2169 3072 
Q 1681 3072 1420 2755 
Q 1159 2438 1159 1844 
L 1159 0 
L 581 0 
L 581 3500 
L 1159 3500 
L 1159 2956 
Q 1341 3275 1631 3429 
Q 1922 3584 2338 3584 
Q 2397 3584 2469 3576 
Q 2541 3569 2628 3553 
L 2631 2963 
z
" transform="scale(0.015625)"/>
       <path id="DejaVuSans-75" d="M 544 1381 
L 544 3500 
L 1119 3500 
L 1119 1403 
Q 1119 906 1312 657 
Q 1506 409 1894 409 
Q 2359 409 2629 706 
Q 2900 1003 2900 1516 
L 2900 3500 
L 3475 3500 
L 3475 0 
L 2900 0 
L 2900 538 
Q 2691 219 2414 64 
Q 2138 -91 1772 -91 
Q 1169 -91 856 284 
Q 544 659 544 1381 
z
M 1991 3584 
L 1991 3584 
z
" transform="scale(0.015625)"/>
      </defs>
      <use xlink:href="#DejaVuSans-54"/>
      <use xlink:href="#DejaVuSans-72" transform="translate(46.333984 0)"/>
      <use xlink:href="#DejaVuSans-75" transform="translate(87.447266 0)"/>
      <use xlink:href="#DejaVuSans-65" transform="translate(150.826172 0)"/>
      <use xlink:href="#DejaVuSans-20" transform="translate(212.349609 0)"/>
      <use xlink:href="#DejaVuSans-50" transform="translate(244.136719 0)"/>
      <use xlink:href="#DejaVuSans-6f" transform="translate(300.814453 0)"/>
      <use xlink:href="#DejaVuSans-73" transform="translate(361.996094 0)"/>
      <use xlink:href="#DejaVuSans-69" transform="translate(414.095703 0)"/>
      <use xlink:href="#DejaVuSans-74" transform="translate(441.878906 0)"/>
      <use xlink:href="#DejaVuSans-69" transform="translate(481.087891 0)"/>
      <use xlink:href="#DejaVuSans-76" transform="translate(508.871094 0)"/>
      <use xlink:href="#DejaVuSans-65" transform="translate(568.050781 0)"/>
      <use xlink:href="#DejaVuSans-20" transform="translate(629.574219 0)"/>
      <use xlink:href="#DejaVuSans-52" transform="translate(661.361328 0)"/>
      <use xlink:href="#DejaVuSans-61" transform="translate(728.59375 0)"/>
      <use xlink:href="#DejaVuSans-74" transform="translate(789.873047 0)"/>
      <use xlink:href="#DejaVuSans-65" transform="translate(829.082031 0)"/>
     </g>
    </g>
   </g>
   <g id="line2d_25">
    <path d="M 47.72 390.04 
L 47.72 388.829467 
L 51.117067 388.829467 
L 51.117067 383.987333 
L 52.8156 383.987333 
L 52.8156 381.566267 
L 54.514133 381.566267 
L 54.514133 374.303067 
L 56.212667 374.303067 
L 56.212667 370.671467 
L 57.9112 370.671467 
L 57.9112 365.829333 
L 59.609733 365.829333 
L 59.609733 353.724 
L 63.0068 353.724 
L 63.0068 352.513467 
L 64.705333 352.513467 
L 64.705333 342.8292 
L 66.403867 342.8292 
L 66.403867 341.618667 
L 68.1024 341.618667 
L 68.1024 336.776533 
L 69.800933 336.776533 
L 69.800933 334.355467 
L 71.499467 334.355467 
L 71.499467 330.723867 
L 73.198 330.723867 
L 73.198 329.513333 
L 76.595067 329.513333 
L 76.595067 325.881733 
L 83.3892 325.881733 
L 83.3892 324.6712 
L 86.786267 324.6712 
L 86.786267 316.197467 
L 88.4848 316.197467 
L 88.4848 311.355333 
L 91.881867 311.355333 
L 91.881867 310.1448 
L 95.278933 310.1448 
L 95.278933 305.302667 
L 96.977467 305.302667 
L 96.977467 304.092133 
L 98.676 304.092133 
L 98.676 302.8816 
L 100.374533 302.8816 
L 100.374533 295.6184 
L 103.7716 295.6184 
L 103.7716 294.407867 
L 105.470133 294.407867 
L 105.470133 291.9868 
L 107.168667 291.9868 
L 107.168667 290.776267 
L 108.8672 290.776267 
L 108.8672 289.565733 
L 113.9628 289.565733 
L 113.9628 287.144667 
L 119.0584 287.144667 
L 119.0584 284.7236 
L 122.455467 284.7236 
L 122.455467 279.881467 
L 124.154 279.881467 
L 124.154 277.4604 
L 125.852533 277.4604 
L 125.852533 276.249867 
L 127.551067 276.249867 
L 127.551067 273.8288 
L 130.948133 273.8288 
L 130.948133 272.618267 
L 132.646667 272.618267 
L 132.646667 271.407733 
L 134.3452 271.407733 
L 134.3452 268.986667 
L 136.043733 268.986667 
L 136.043733 267.776133 
L 139.4408 267.776133 
L 139.4408 266.5656 
L 142.837867 266.5656 
L 142.837867 260.512933 
L 144.5364 260.512933 
L 144.5364 253.249733 
L 149.632 253.249733 
L 149.632 250.828667 
L 151.330533 250.828667 
L 151.330533 248.4076 
L 156.426133 248.4076 
L 156.426133 247.197067 
L 158.124667 247.197067 
L 158.124667 245.986533 
L 159.8232 245.986533 
L 159.8232 243.565467 
L 166.617333 243.565467 
L 166.617333 241.1444 
L 170.0144 241.1444 
L 170.0144 239.933867 
L 171.712933 239.933867 
L 171.712933 235.091733 
L 173.411467 235.091733 
L 173.411467 233.8812 
L 175.11 233.8812 
L 175.11 232.670667 
L 178.507067 232.670667 
L 178.507067 225.407467 
L 185.3012 225.407467 
L 185.3012 224.196933 
L 186.999733 224.196933 
L 186.999733 222.9864 
L 190.3968 222.9864 
L 190.3968 219.3548 
L 195.4924 219.3548 
L 195.4924 218.144267 
L 197.190933 218.144267 
L 197.190933 216.933733 
L 205.6836 216.933733 
L 205.6836 215.7232 
L 207.382133 215.7232 
L 207.382133 214.512667 
L 210.7792 214.512667 
L 224.367467 195.144133 
L 224.367467 192.723067 
L 226.066 192.723067 
L 226.066 191.512533 
L 229.463067 191.512533 
L 229.463067 187.880933 
L 236.2572 187.880933 
L 236.2572 186.6704 
L 237.955733 186.6704 
L 237.955733 185.459867 
L 239.654267 185.459867 
L 239.654267 184.249333 
L 241.3528 184.249333 
L 241.3528 179.4072 
L 243.051333 179.4072 
L 243.051333 178.196667 
L 248.146933 178.196667 
L 248.146933 175.7756 
L 251.544 175.7756 
L 251.544 174.565067 
L 254.941067 174.565067 
L 254.941067 172.144 
L 256.6396 172.144 
L 256.6396 169.722933 
L 260.036667 169.722933 
L 260.036667 166.091333 
L 261.7352 166.091333 
L 261.7352 164.8808 
L 268.529333 164.8808 
L 268.529333 163.670267 
L 270.227867 163.670267 
L 270.227867 162.459733 
L 271.9264 162.459733 
L 271.9264 161.2492 
L 273.624933 161.2492 
L 273.624933 156.407067 
L 278.720533 156.407067 
L 278.720533 153.986 
L 280.419067 153.986 
L 280.419067 152.775467 
L 283.816133 152.775467 
L 310.992667 143.0912 
L 310.992667 140.670133 
L 312.6912 140.670133 
L 312.6912 139.4596 
L 314.389733 139.4596 
L 314.389733 133.406933 
L 316.088267 133.406933 
L 316.088267 132.1964 
L 317.7868 132.1964 
L 317.7868 128.5648 
L 322.8824 128.5648 
L 322.8824 126.143733 
L 324.580933 126.143733 
L 324.580933 124.9332 
L 326.279467 124.9332 
L 326.279467 120.091067 
L 336.470667 120.091067 
L 336.470667 117.67 
L 338.1692 117.67 
L 338.1692 116.459467 
L 339.867733 116.459467 
L 339.867733 115.248933 
L 346.661867 115.248933 
L 346.661867 114.0384 
L 348.3604 114.0384 
L 348.3604 111.617333 
L 351.757467 111.617333 
L 351.757467 106.7752 
L 355.154533 106.7752 
L 355.154533 105.564667 
L 356.853067 105.564667 
L 356.853067 104.354133 
L 358.5516 104.354133 
L 358.5516 100.722533 
L 361.948667 100.722533 
L 361.948667 99.512 
L 365.345733 99.512 
L 365.345733 95.8804 
L 375.536933 95.8804 
L 375.536933 94.669867 
L 384.0296 94.669867 
L 384.0296 92.2488 
L 385.728133 92.2488 
L 385.728133 89.827733 
L 387.426667 89.827733 
L 387.426667 88.6172 
L 390.823733 88.6172 
L 390.823733 87.406667 
L 392.522267 87.406667 
L 392.522267 86.196133 
L 394.2208 86.196133 
L 394.2208 83.775067 
L 397.617867 83.775067 
L 397.617867 82.564533 
L 399.3164 82.564533 
L 399.3164 81.354 
L 402.713467 81.354 
L 402.713467 80.143467 
L 409.5076 80.143467 
L 409.5076 77.7224 
L 412.904667 77.7224 
L 412.904667 74.0908 
L 416.301733 74.0908 
L 416.301733 70.4592 
L 418.000267 70.4592 
L 418.000267 69.248667 
L 419.6988 69.248667 
L 419.6988 68.038133 
L 423.095867 68.038133 
L 423.095867 66.8276 
L 424.7944 66.8276 
L 424.7944 64.406533 
L 434.9856 64.406533 
L 434.9856 63.196 
L 436.684133 63.196 
L 436.684133 61.985467 
L 438.382667 61.985467 
L 438.382667 60.774933 
L 445.1768 60.774933 
L 445.1768 58.353867 
L 446.875333 58.353867 
L 446.875333 55.9328 
L 453.669467 55.9328 
L 453.669467 54.722267 
L 465.5592 54.722267 
L 465.5592 52.3012 
L 467.257733 52.3012 
L 467.257733 47.459067 
L 472.353333 47.459067 
L 472.353333 45.038 
L 474.051867 45.038 
L 474.051867 43.827467 
L 479.147467 43.827467 
L 479.147467 42.616933 
L 482.544533 42.616933 
L 482.544533 41.4064 
L 489.338667 41.4064 
L 489.338667 40.195867 
L 491.0372 40.195867 
L 491.0372 38.985333 
L 504.625467 38.985333 
L 504.625467 37.7748 
L 506.324 37.7748 
L 506.324 35.353733 
L 523.309333 35.353733 
L 523.309333 34.1432 
L 530.103467 34.1432 
L 530.103467 32.932667 
L 535.199067 32.932667 
L 535.199067 31.722133 
L 545.390267 31.722133 
L 545.390267 30.5116 
L 548.787333 30.5116 
L 548.787333 29.301067 
L 555.581467 29.301067 
L 555.581467 26.88 
L 557.28 26.88 
L 557.28 26.88 
" clip-path="url(#p5664f2dbe8)" style="fill: none; stroke-dasharray: 7.4,3.2; stroke-dashoffset: 0; stroke: #1f77b4; stroke-width: 2"/>
   </g>
   <g id="line2d_26">
    <path d="M 47.72 383.987333 
L 51.117067 374.303067 
L 54.514133 370.671467 
L 57.9112 359.776667 
L 61.308267 352.513467 
L 64.705333 336.776533 
L 68.1024 333.144933 
L 71.499467 330.723867 
L 74.896533 325.881733 
L 78.2936 323.460667 
L 81.690667 314.986933 
L 88.4848 312.565867 
L 91.881867 307.723733 
L 95.278933 305.302667 
L 98.676 299.25 
L 102.073067 296.828933 
L 108.8672 281.092 
L 112.264267 279.881467 
L 115.661333 276.249867 
L 119.0584 270.1972 
L 122.455467 268.986667 
L 125.852533 265.355067 
L 129.2496 264.144533 
L 132.646667 262.934 
L 136.043733 261.723467 
L 146.234933 253.249733 
L 153.029067 245.986533 
L 156.426133 237.5128 
L 163.220267 230.2496 
L 166.617333 227.828533 
L 173.411467 225.407467 
L 176.808533 222.9864 
L 180.2056 219.3548 
L 183.602667 218.144267 
L 186.999733 215.7232 
L 190.3968 207.249467 
L 193.793867 203.617867 
L 200.588 201.1968 
L 203.985067 199.986267 
L 207.382133 196.354667 
L 210.7792 195.144133 
L 214.176267 192.723067 
L 217.573333 190.302 
L 220.9704 184.249333 
L 224.367467 178.196667 
L 231.1616 175.7756 
L 234.558667 170.933467 
L 248.146933 164.8808 
L 251.544 160.038667 
L 254.941067 158.828133 
L 258.338133 155.196533 
L 261.7352 152.775467 
L 268.529333 149.143867 
L 275.323467 147.933333 
L 278.720533 144.301733 
L 282.1176 143.0912 
L 285.514667 140.670133 
L 288.911733 135.828 
L 292.3088 134.617467 
L 302.5 129.775333 
L 305.897067 126.143733 
L 309.294133 124.9332 
L 312.6912 123.722667 
L 316.088267 122.512133 
L 319.485333 117.67 
L 326.279467 114.0384 
L 329.676533 112.827867 
L 336.470667 110.4068 
L 339.867733 107.985733 
L 343.2648 106.7752 
L 346.661867 105.564667 
L 350.058933 102.538333 
L 353.456 98.301467 
L 356.853067 96.485667 
L 360.250133 93.459333 
L 363.6472 90.433 
L 377.235467 86.8014 
L 387.426667 83.775067 
L 390.823733 81.959267 
L 401.014933 77.7224 
L 404.412 76.511867 
L 411.206133 75.301333 
L 414.6032 74.0908 
L 418.000267 68.038133 
L 421.397333 63.196 
L 428.191467 60.774933 
L 431.588533 59.5644 
L 434.9856 57.143333 
L 438.382667 54.722267 
L 445.1768 53.511733 
L 451.970933 52.3012 
L 455.368 49.880133 
L 462.162133 48.6696 
L 475.7504 45.038 
L 479.147467 43.827467 
L 482.544533 42.616933 
L 496.1328 40.195867 
L 502.926933 37.7748 
L 509.721067 35.353733 
L 516.5152 34.1432 
L 530.103467 32.932667 
L 543.691733 31.722133 
L 547.0888 30.5116 
L 550.485867 29.301067 
L 553.882933 26.88 
L 557.28 26.88 
" clip-path="url(#p5664f2dbe8)" style="fill: none; stroke-dasharray: 7.4,3.2; stroke-dashoffset: 0; stroke: #ff7f0e; stroke-width: 2"/>
   </g>
   <g id="line2d_27">
    <path d="M 47.72 390.04 
L 47.72 387.618933 
L 54.514133 387.618933 
L 54.514133 385.197867 
L 57.9112 385.197867 
L 57.9112 382.7768 
L 61.308267 382.7768 
L 61.308267 370.671467 
L 64.705333 370.671467 
L 64.705333 356.145067 
L 68.1024 356.145067 
L 68.1024 351.302933 
L 74.896533 351.302933 
L 74.896533 346.4608 
L 81.690667 346.4608 
L 81.690667 331.9344 
L 91.881867 331.9344 
L 91.881867 322.250133 
L 95.278933 322.250133 
L 95.278933 317.408 
L 98.676 317.408 
L 98.676 305.302667 
L 102.073067 305.302667 
L 102.073067 302.8816 
L 108.8672 302.8816 
L 108.8672 290.776267 
L 119.0584 290.776267 
L 119.0584 288.3552 
L 122.455467 288.3552 
L 122.455467 285.934133 
L 125.852533 285.934133 
L 125.852533 281.092 
L 129.2496 281.092 
L 129.2496 278.670933 
L 136.043733 278.670933 
L 163.220267 239.933867 
L 166.617333 239.933867 
L 166.617333 235.091733 
L 173.411467 235.091733 
L 173.411467 232.670667 
L 180.2056 232.670667 
L 180.2056 227.828533 
L 183.602667 227.828533 
L 183.602667 225.407467 
L 186.999733 225.407467 
L 186.999733 220.565333 
L 190.3968 220.565333 
L 190.3968 215.7232 
L 193.793867 215.7232 
L 193.793867 208.46 
L 207.382133 208.46 
L 207.382133 201.1968 
L 210.7792 201.1968 
L 210.7792 198.775733 
L 214.176267 198.775733 
L 214.176267 196.354667 
L 220.9704 196.354667 
L 220.9704 184.249333 
L 224.367467 184.249333 
L 224.367467 176.986133 
L 231.1616 176.986133 
L 231.1616 174.565067 
L 234.558667 174.565067 
L 234.558667 169.722933 
L 251.544 169.722933 
L 251.544 160.038667 
L 258.338133 160.038667 
L 258.338133 157.6176 
L 261.7352 157.6176 
L 261.7352 152.775467 
L 268.529333 152.775467 
L 268.529333 147.933333 
L 275.323467 147.933333 
L 275.323467 145.512267 
L 278.720533 145.512267 
L 278.720533 138.249067 
L 282.1176 138.249067 
L 282.1176 135.828 
L 288.911733 135.828 
L 288.911733 128.5648 
L 305.897067 128.5648 
L 305.897067 121.3016 
L 309.294133 121.3016 
L 309.294133 118.880533 
L 316.088267 118.880533 
L 316.088267 116.459467 
L 319.485333 116.459467 
L 319.485333 109.196267 
L 326.279467 109.196267 
L 326.279467 104.354133 
L 343.2648 104.354133 
L 343.2648 101.933067 
L 350.058933 101.933067 
L 350.058933 97.090933 
L 353.456 97.090933 
L 353.456 89.827733 
L 356.853067 89.827733 
L 356.853067 87.406667 
L 360.250133 87.406667 
L 360.250133 82.564533 
L 363.6472 82.564533 
L 363.6472 77.7224 
L 377.235467 77.7224 
L 377.235467 75.301333 
L 387.426667 75.301333 
L 387.426667 72.880267 
L 390.823733 72.880267 
L 390.823733 70.4592 
L 418.000267 70.4592 
L 418.000267 65.617067 
L 421.397333 65.617067 
L 421.397333 55.9328 
L 428.191467 55.9328 
L 428.191467 51.090667 
L 431.588533 51.090667 
L 431.588533 48.6696 
L 438.382667 48.6696 
L 438.382667 46.248533 
L 445.1768 46.248533 
L 445.1768 43.827467 
L 451.970933 43.827467 
L 451.970933 41.4064 
L 455.368 41.4064 
L 455.368 38.985333 
L 479.147467 38.985333 
L 479.147467 36.564267 
L 482.544533 36.564267 
L 482.544533 34.1432 
L 509.721067 34.1432 
L 509.721067 31.722133 
L 516.5152 31.722133 
L 516.5152 29.301067 
L 543.691733 29.301067 
L 543.691733 26.88 
L 557.28 26.88 
L 557.28 26.88 
" clip-path="url(#p5664f2dbe8)" style="fill: none; stroke: #2ca02c; stroke-width: 1.5; stroke-linecap: square"/>
   </g>
   <g id="line2d_28">
    <path d="M 47.72 390.04 
L 47.72 380.355733 
L 51.117067 380.355733 
L 51.117067 360.9872 
L 54.514133 360.9872 
L 54.514133 356.145067 
L 57.9112 356.145067 
L 57.9112 336.776533 
L 61.308267 336.776533 
L 61.308267 334.355467 
L 64.705333 334.355467 
L 64.705333 317.408 
L 68.1024 317.408 
L 68.1024 314.986933 
L 71.499467 314.986933 
L 71.499467 310.1448 
L 74.896533 310.1448 
L 74.896533 305.302667 
L 78.2936 305.302667 
L 78.2936 300.460533 
L 81.690667 300.460533 
L 81.690667 298.039467 
L 88.4848 298.039467 
L 88.4848 293.197333 
L 102.073067 293.197333 
L 102.073067 290.776267 
L 108.8672 290.776267 
L 108.8672 271.407733 
L 112.264267 271.407733 
L 112.264267 268.986667 
L 115.661333 268.986667 
L 115.661333 261.723467 
L 119.0584 261.723467 
L 119.0584 252.0392 
L 125.852533 252.0392 
L 125.852533 249.618133 
L 132.646667 249.618133 
L 132.646667 247.197067 
L 136.043733 247.197067 
L 136.043733 244.776 
L 146.234933 244.776 
L 146.234933 242.354933 
L 153.029067 242.354933 
L 153.029067 237.5128 
L 156.426133 237.5128 
L 156.426133 225.407467 
L 163.220267 225.407467 
L 163.220267 220.565333 
L 173.411467 220.565333 
L 173.411467 218.144267 
L 176.808533 218.144267 
L 176.808533 213.302133 
L 180.2056 213.302133 
L 180.2056 210.881067 
L 190.3968 210.881067 
L 190.3968 198.775733 
L 200.588 198.775733 
L 200.588 193.9336 
L 203.985067 193.9336 
L 203.985067 191.512533 
L 214.176267 191.512533 
L 214.176267 189.091467 
L 217.573333 189.091467 
L 217.573333 184.249333 
L 224.367467 184.249333 
L 224.367467 179.4072 
L 231.1616 179.4072 
L 231.1616 176.986133 
L 234.558667 176.986133 
L 234.558667 172.144 
L 248.146933 172.144 
L 248.146933 160.038667 
L 254.941067 160.038667 
L 254.941067 157.6176 
L 258.338133 157.6176 
L 258.338133 152.775467 
L 268.529333 152.775467 
L 268.529333 150.3544 
L 285.514667 150.3544 
L 285.514667 145.512267 
L 288.911733 145.512267 
L 288.911733 143.0912 
L 292.3088 143.0912 
L 292.3088 140.670133 
L 302.5 140.670133 
L 302.5 130.985867 
L 312.6912 130.985867 
L 312.6912 128.5648 
L 319.485333 128.5648 
L 319.485333 126.143733 
L 326.279467 126.143733 
L 326.279467 123.722667 
L 329.676533 123.722667 
L 329.676533 121.3016 
L 336.470667 121.3016 
L 336.470667 116.459467 
L 339.867733 116.459467 
L 339.867733 111.617333 
L 346.661867 111.617333 
L 346.661867 109.196267 
L 401.014933 89.827733 
L 401.014933 84.9856 
L 404.412 84.9856 
L 404.412 82.564533 
L 411.206133 82.564533 
L 411.206133 80.143467 
L 414.6032 80.143467 
L 414.6032 77.7224 
L 418.000267 77.7224 
L 418.000267 70.4592 
L 434.9856 70.4592 
L 434.9856 65.617067 
L 438.382667 65.617067 
L 438.382667 63.196 
L 455.368 63.196 
L 455.368 60.774933 
L 462.162133 60.774933 
L 462.162133 58.353867 
L 475.7504 58.353867 
L 475.7504 51.090667 
L 496.1328 51.090667 
L 496.1328 46.248533 
L 502.926933 46.248533 
L 502.926933 41.4064 
L 509.721067 41.4064 
L 509.721067 38.985333 
L 530.103467 38.985333 
L 530.103467 36.564267 
L 547.0888 36.564267 
L 547.0888 34.1432 
L 550.485867 34.1432 
L 550.485867 31.722133 
L 553.882933 31.722133 
L 553.882933 26.88 
L 557.28 26.88 
L 557.28 26.88 
" clip-path="url(#p5664f2dbe8)" style="fill: none; stroke: #d62728; stroke-width: 1.5; stroke-linecap: square"/>
   </g>
   <g id="line2d_29">
    <path d="M 47.72 390.04 
L 47.72 26.88 
L 557.28 26.88 
" clip-path="url(#p5664f2dbe8)" style="fill: none; stroke: #9467bd; stroke-opacity: 0.3; stroke-linecap: square"/>
   </g>
   <g id="line2d_30">
    <path d="M 47.72 390.04 
L 557.28 26.88 
" clip-path="url(#p5664f2dbe8)" style="fill: none; stroke-dasharray: 1,1.65; stroke-dashoffset: 0; stroke: #8c564b"/>
   </g>
   <g id="patch_3">
    <path d="M 47.72 390.04 
L 47.72 26.88 
" style="fill: none; stroke: #000000; stroke-width: 0.8; stroke-linejoin: miter; stroke-linecap: square"/>
   </g>
   <g id="patch_4">
    <path d="M 557.28 390.04 
L 557.28 26.88 
" style="fill: none; stroke: #000000; stroke-width: 0.8; stroke-linejoin: miter; stroke-linecap: square"/>
   </g>
   <g id="patch_5">
    <path d="M 47.72 390.04 
L 557.28 390.04 
" style="fill: none; stroke: #000000; stroke-width: 0.8; stroke-linejoin: miter; stroke-linecap: square"/>
   </g>
   <g id="patch_6">
    <path d="M 47.72 26.88 
L 557.28 26.88 
" style="fill: none; stroke: #000000; stroke-width: 0.8; stroke-linejoin: miter; stroke-linecap: square"/>
   </g>
   <g id="text_15">
    <!-- Classical NN ROC Curves -->
    <g transform="translate(227.798125 20.88) scale(0.12 -0.12)">
     <defs>
      <path id="DejaVuSans-43" d="M 4122 4306 
L 4122 3641 
Q 3803 3938 3442 4084 
Q 3081 4231 2675 4231 
Q 1875 4231 1450 3742 
Q 1025 3253 1025 2328 
Q 1025 1406 1450 917 
Q 1875 428 2675 428 
Q 3081 428 3442 575 
Q 3803 722 4122 1019 
L 4122 359 
Q 3791 134 3420 21 
Q 3050 -91 2638 -91 
Q 1578 -91 968 557 
Q 359 1206 359 2328 
Q 359 3453 968 4101 
Q 1578 4750 2638 4750 
Q 3056 4750 3426 4639 
Q 3797 4528 4122 4306 
z
" transform="scale(0.015625)"/>
      <path id="DejaVuSans-63" d="M 3122 3366 
L 3122 2828 
Q 2878 2963 2633 3030 
Q 2388 3097 2138 3097 
Q 1578 3097 1268 2742 
Q 959 2388 959 1747 
Q 959 1106 1268 751 
Q 1578 397 2138 397 
Q 2388 397 2633 464 
Q 2878 531 3122 666 
L 3122 134 
Q 2881 22 2623 -34 
Q 2366 -91 2075 -91 
Q 1284 -91 818 406 
Q 353 903 353 1747 
Q 353 2603 823 3093 
Q 1294 3584 2113 3584 
Q 2378 3584 2631 3529 
Q 2884 3475 3122 3366 
z
" transform="scale(0.015625)"/>
      <path id="DejaVuSans-4e" d="M 628 4666 
L 1478 4666 
L 3547 763 
L 3547 4666 
L 4159 4666 
L 4159 0 
L 3309 0 
L 1241 3903 
L 1241 0 
L 628 0 
L 628 4666 
z
" transform="scale(0.015625)"/>
      <path id="DejaVuSans-4f" d="M 2522 4238 
Q 1834 4238 1429 3725 
Q 1025 3213 1025 2328 
Q 1025 1447 1429 934 
Q 1834 422 2522 422 
Q 3209 422 3611 934 
Q 4013 1447 4013 2328 
Q 4013 3213 3611 3725 
Q 3209 4238 2522 4238 
z
M 2522 4750 
Q 3503 4750 4090 4092 
Q 4678 3434 4678 2328 
Q 4678 1225 4090 567 
Q 3503 -91 2522 -91 
Q 1538 -91 948 565 
Q 359 1222 359 2328 
Q 359 3434 948 4092 
Q 1538 4750 2522 4750 
z
" transform="scale(0.015625)"/>
     </defs>
     <use xlink:href="#DejaVuSans-43"/>
     <use xlink:href="#DejaVuSans-6c" transform="translate(69.824219 0)"/>
     <use xlink:href="#DejaVuSans-61" transform="translate(97.607422 0)"/>
     <use xlink:href="#DejaVuSans-73" transform="translate(158.886719 0)"/>
     <use xlink:href="#DejaVuSans-73" transform="translate(210.986328 0)"/>
     <use xlink:href="#DejaVuSans-69" transform="translate(263.085938 0)"/>
     <use xlink:href="#DejaVuSans-63" transform="translate(290.869141 0)"/>
     <use xlink:href="#DejaVuSans-61" transform="translate(345.849609 0)"/>
     <use xlink:href="#DejaVuSans-6c" transform="translate(407.128906 0)"/>
     <use xlink:href="#DejaVuSans-20" transform="translate(434.912109 0)"/>
     <use xlink:href="#DejaVuSans-4e" transform="translate(466.699219 0)"/>
     <use xlink:href="#DejaVuSans-4e" transform="translate(541.503906 0)"/>
     <use xlink:href="#DejaVuSans-20" transform="translate(616.308594 0)"/>
     <use xlink:href="#DejaVuSans-52" transform="translate(648.095703 0)"/>
     <use xlink:href="#DejaVuSans-4f" transform="translate(717.578125 0)"/>
     <use xlink:href="#DejaVuSans-43" transform="translate(796.289062 0)"/>
     <use xlink:href="#DejaVuSans-20" transform="translate(866.113281 0)"/>
     <use xlink:href="#DejaVuSans-43" transform="translate(897.900391 0)"/>
     <use xlink:href="#DejaVuSans-75" transform="translate(967.724609 0)"/>
     <use xlink:href="#DejaVuSans-72" transform="translate(1031.103516 0)"/>
     <use xlink:href="#DejaVuSans-76" transform="translate(1072.216797 0)"/>
     <use xlink:href="#DejaVuSans-65" transform="translate(1131.396484 0)"/>
     <use xlink:href="#DejaVuSans-73" transform="translate(1192.919922 0)"/>
    </g>
   </g>
   <g id="legend_1">
    <g id="patch_7">
     <path d="M 366.684687 385.04 
L 550.28 385.04 
Q 552.28 385.04 552.28 383.04 
L 552.28 325.3275 
Q 552.28 323.3275 550.28 323.3275 
L 366.684687 323.3275 
Q 364.684687 323.3275 364.684687 325.3275 
L 364.684687 383.04 
Q 364.684687 385.04 366.684687 385.04 
z
" style="fill: #ffffff; opacity: 0.8; stroke: #cccccc; stroke-linejoin: miter"/>
    </g>
    <g id="line2d_31">
     <path d="M 368.684687 331.425937 
L 378.684687 331.425937 
L 388.684687 331.425937 
" style="fill: none; stroke-dasharray: 7.4,3.2; stroke-dashoffset: 0; stroke: #1f77b4; stroke-width: 2"/>
    </g>
    <g id="text_16">
     <!-- micro-average (AUC = 0.642) -->
     <g transform="translate(396.684687 334.925937) scale(0.1 -0.1)">
      <defs>
       <path id="DejaVuSans-6d" d="M 3328 2828 
Q 3544 3216 3844 3400 
Q 4144 3584 4550 3584 
Q 5097 3584 5394 3201 
Q 5691 2819 5691 2113 
L 5691 0 
L 5113 0 
L 5113 2094 
Q 5113 2597 4934 2840 
Q 4756 3084 4391 3084 
Q 3944 3084 3684 2787 
Q 3425 2491 3425 1978 
L 3425 0 
L 2847 0 
L 2847 2094 
Q 2847 2600 2669 2842 
Q 2491 3084 2119 3084 
Q 1678 3084 1418 2786 
Q 1159 2488 1159 1978 
L 1159 0 
L 581 0 
L 581 3500 
L 1159 3500 
L 1159 2956 
Q 1356 3278 1631 3431 
Q 1906 3584 2284 3584 
Q 2666 3584 2933 3390 
Q 3200 3197 3328 2828 
z
" transform="scale(0.015625)"/>
       <path id="DejaVuSans-2d" d="M 313 2009 
L 1997 2009 
L 1997 1497 
L 313 1497 
L 313 2009 
z
" transform="scale(0.015625)"/>
       <path id="DejaVuSans-67" d="M 2906 1791 
Q 2906 2416 2648 2759 
Q 2391 3103 1925 3103 
Q 1463 3103 1205 2759 
Q 947 2416 947 1791 
Q 947 1169 1205 825 
Q 1463 481 1925 481 
Q 2391 481 2648 825 
Q 2906 1169 2906 1791 
z
M 3481 434 
Q 3481 -459 3084 -895 
Q 2688 -1331 1869 -1331 
Q 1566 -1331 1297 -1286 
Q 1028 -1241 775 -1147 
L 775 -588 
Q 1028 -725 1275 -790 
Q 1522 -856 1778 -856 
Q 2344 -856 2625 -561 
Q 2906 -266 2906 331 
L 2906 616 
Q 2728 306 2450 153 
Q 2172 0 1784 0 
Q 1141 0 747 490 
Q 353 981 353 1791 
Q 353 2603 747 3093 
Q 1141 3584 1784 3584 
Q 2172 3584 2450 3431 
Q 2728 3278 2906 2969 
L 2906 3500 
L 3481 3500 
L 3481 434 
z
" transform="scale(0.015625)"/>
       <path id="DejaVuSans-28" d="M 1984 4856 
Q 1566 4138 1362 3434 
Q 1159 2731 1159 2009 
Q 1159 1288 1364 580 
Q 1569 -128 1984 -844 
L 1484 -844 
Q 1016 -109 783 600 
Q 550 1309 550 2009 
Q 550 2706 781 3412 
Q 1013 4119 1484 4856 
L 1984 4856 
z
" transform="scale(0.015625)"/>
       <path id="DejaVuSans-41" d="M 2188 4044 
L 1331 1722 
L 3047 1722 
L 2188 4044 
z
M 1831 4666 
L 2547 4666 
L 4325 0 
L 3669 0 
L 3244 1197 
L 1141 1197 
L 716 0 
L 50 0 
L 1831 4666 
z
" transform="scale(0.015625)"/>
       <path id="DejaVuSans-55" d="M 556 4666 
L 1191 4666 
L 1191 1831 
Q 1191 1081 1462 751 
Q 1734 422 2344 422 
Q 2950 422 3222 751 
Q 3494 1081 3494 1831 
L 3494 4666 
L 4128 4666 
L 4128 1753 
Q 4128 841 3676 375 
Q 3225 -91 2344 -91 
Q 1459 -91 1007 375 
Q 556 841 556 1753 
L 556 4666 
z
" transform="scale(0.015625)"/>
       <path id="DejaVuSans-3d" d="M 678 2906 
L 4684 2906 
L 4684 2381 
L 678 2381 
L 678 2906 
z
M 678 1631 
L 4684 1631 
L 4684 1100 
L 678 1100 
L 678 1631 
z
" transform="scale(0.015625)"/>
       <path id="DejaVuSans-29" d="M 513 4856 
L 1013 4856 
Q 1481 4119 1714 3412 
Q 1947 2706 1947 2009 
Q 1947 1309 1714 600 
Q 1481 -109 1013 -844 
L 513 -844 
Q 928 -128 1133 580 
Q 1338 1288 1338 2009 
Q 1338 2731 1133 3434 
Q 928 4138 513 4856 
z
" transform="scale(0.015625)"/>
      </defs>
      <use xlink:href="#DejaVuSans-6d"/>
      <use xlink:href="#DejaVuSans-69" transform="translate(97.412109 0)"/>
      <use xlink:href="#DejaVuSans-63" transform="translate(125.195312 0)"/>
      <use xlink:href="#DejaVuSans-72" transform="translate(180.175781 0)"/>
      <use xlink:href="#DejaVuSans-6f" transform="translate(219.039062 0)"/>
      <use xlink:href="#DejaVuSans-2d" transform="translate(282.095703 0)"/>
      <use xlink:href="#DejaVuSans-61" transform="translate(318.179688 0)"/>
      <use xlink:href="#DejaVuSans-76" transform="translate(379.458984 0)"/>
      <use xlink:href="#DejaVuSans-65" transform="translate(438.638672 0)"/>
      <use xlink:href="#DejaVuSans-72" transform="translate(500.162109 0)"/>
      <use xlink:href="#DejaVuSans-61" transform="translate(541.275391 0)"/>
      <use xlink:href="#DejaVuSans-67" transform="translate(602.554688 0)"/>
      <use xlink:href="#DejaVuSans-65" transform="translate(666.03125 0)"/>
      <use xlink:href="#DejaVuSans-20" transform="translate(727.554688 0)"/>
      <use xlink:href="#DejaVuSans-28" transform="translate(759.341797 0)"/>
      <use xlink:href="#DejaVuSans-41" transform="translate(798.355469 0)"/>
      <use xlink:href="#DejaVuSans-55" transform="translate(866.763672 0)"/>
      <use xlink:href="#DejaVuSans-43" transform="translate(939.957031 0)"/>
      <use xlink:href="#DejaVuSans-20" transform="translate(1009.78125 0)"/>
      <use xlink:href="#DejaVuSans-3d" transform="translate(1041.568359 0)"/>
      <use xlink:href="#DejaVuSans-20" transform="translate(1125.357422 0)"/>
      <use xlink:href="#DejaVuSans-30" transform="translate(1157.144531 0)"/>
      <use xlink:href="#DejaVuSans-2e" transform="translate(1220.767578 0)"/>
      <use xlink:href="#DejaVuSans-36" transform="translate(1252.554688 0)"/>
      <use xlink:href="#DejaVuSans-34" transform="translate(1316.177734 0)"/>
      <use xlink:href="#DejaVuSans-32" transform="translate(1379.800781 0)"/>
      <use xlink:href="#DejaVuSans-29" transform="translate(1443.423828 0)"/>
     </g>
    </g>
    <g id="line2d_32">
     <path d="M 368.684687 346.104062 
L 378.684687 346.104062 
L 388.684687 346.104062 
" style="fill: none; stroke-dasharray: 7.4,3.2; stroke-dashoffset: 0; stroke: #ff7f0e; stroke-width: 2"/>
    </g>
    <g id="text_17">
     <!-- macro-average (AUC = 0.664) -->
     <g transform="translate(396.684687 349.604062) scale(0.1 -0.1)">
      <use xlink:href="#DejaVuSans-6d"/>
      <use xlink:href="#DejaVuSans-61" transform="translate(97.412109 0)"/>
      <use xlink:href="#DejaVuSans-63" transform="translate(158.691406 0)"/>
      <use xlink:href="#DejaVuSans-72" transform="translate(213.671875 0)"/>
      <use xlink:href="#DejaVuSans-6f" transform="translate(252.535156 0)"/>
      <use xlink:href="#DejaVuSans-2d" transform="translate(315.591797 0)"/>
      <use xlink:href="#DejaVuSans-61" transform="translate(351.675781 0)"/>
      <use xlink:href="#DejaVuSans-76" transform="translate(412.955078 0)"/>
      <use xlink:href="#DejaVuSans-65" transform="translate(472.134766 0)"/>
      <use xlink:href="#DejaVuSans-72" transform="translate(533.658203 0)"/>
      <use xlink:href="#DejaVuSans-61" transform="translate(574.771484 0)"/>
      <use xlink:href="#DejaVuSans-67" transform="translate(636.050781 0)"/>
      <use xlink:href="#DejaVuSans-65" transform="translate(699.527344 0)"/>
      <use xlink:href="#DejaVuSans-20" transform="translate(761.050781 0)"/>
      <use xlink:href="#DejaVuSans-28" transform="translate(792.837891 0)"/>
      <use xlink:href="#DejaVuSans-41" transform="translate(831.851562 0)"/>
      <use xlink:href="#DejaVuSans-55" transform="translate(900.259766 0)"/>
      <use xlink:href="#DejaVuSans-43" transform="translate(973.453125 0)"/>
      <use xlink:href="#DejaVuSans-20" transform="translate(1043.277344 0)"/>
      <use xlink:href="#DejaVuSans-3d" transform="translate(1075.064453 0)"/>
      <use xlink:href="#DejaVuSans-20" transform="translate(1158.853516 0)"/>
      <use xlink:href="#DejaVuSans-30" transform="translate(1190.640625 0)"/>
      <use xlink:href="#DejaVuSans-2e" transform="translate(1254.263672 0)"/>
      <use xlink:href="#DejaVuSans-36" transform="translate(1286.050781 0)"/>
      <use xlink:href="#DejaVuSans-36" transform="translate(1349.673828 0)"/>
      <use xlink:href="#DejaVuSans-34" transform="translate(1413.296875 0)"/>
      <use xlink:href="#DejaVuSans-29" transform="translate(1476.919922 0)"/>
     </g>
    </g>
    <g id="line2d_33">
     <path d="M 368.684687 360.782187 
L 378.684687 360.782187 
L 388.684687 360.782187 
" style="fill: none; stroke: #2ca02c; stroke-width: 1.5; stroke-linecap: square"/>
    </g>
    <g id="text_18">
     <!-- cat (AUC = 0.659) -->
     <g transform="translate(396.684687 364.282187) scale(0.1 -0.1)">
      <defs>
       <path id="DejaVuSans-35" d="M 691 4666 
L 3169 4666 
L 3169 4134 
L 1269 4134 
L 1269 2991 
Q 1406 3038 1543 3061 
Q 1681 3084 1819 3084 
Q 2600 3084 3056 2656 
Q 3513 2228 3513 1497 
Q 3513 744 3044 326 
Q 2575 -91 1722 -91 
Q 1428 -91 1123 -41 
Q 819 9 494 109 
L 494 744 
Q 775 591 1075 516 
Q 1375 441 1709 441 
Q 2250 441 2565 725 
Q 2881 1009 2881 1497 
Q 2881 1984 2565 2268 
Q 2250 2553 1709 2553 
Q 1456 2553 1204 2497 
Q 953 2441 691 2322 
L 691 4666 
z
" transform="scale(0.015625)"/>
       <path id="DejaVuSans-39" d="M 703 97 
L 703 672 
Q 941 559 1184 500 
Q 1428 441 1663 441 
Q 2288 441 2617 861 
Q 2947 1281 2994 2138 
Q 2813 1869 2534 1725 
Q 2256 1581 1919 1581 
Q 1219 1581 811 2004 
Q 403 2428 403 3163 
Q 403 3881 828 4315 
Q 1253 4750 1959 4750 
Q 2769 4750 3195 4129 
Q 3622 3509 3622 2328 
Q 3622 1225 3098 567 
Q 2575 -91 1691 -91 
Q 1453 -91 1209 -44 
Q 966 3 703 97 
z
M 1959 2075 
Q 2384 2075 2632 2365 
Q 2881 2656 2881 3163 
Q 2881 3666 2632 3958 
Q 2384 4250 1959 4250 
Q 1534 4250 1286 3958 
Q 1038 3666 1038 3163 
Q 1038 2656 1286 2365 
Q 1534 2075 1959 2075 
z
" transform="scale(0.015625)"/>
      </defs>
      <use xlink:href="#DejaVuSans-63"/>
      <use xlink:href="#DejaVuSans-61" transform="translate(54.980469 0)"/>
      <use xlink:href="#DejaVuSans-74" transform="translate(116.259766 0)"/>
      <use xlink:href="#DejaVuSans-20" transform="translate(155.46875 0)"/>
      <use xlink:href="#DejaVuSans-28" transform="translate(187.255859 0)"/>
      <use xlink:href="#DejaVuSans-41" transform="translate(226.269531 0)"/>
      <use xlink:href="#DejaVuSans-55" transform="translate(294.677734 0)"/>
      <use xlink:href="#DejaVuSans-43" transform="translate(367.871094 0)"/>
      <use xlink:href="#DejaVuSans-20" transform="translate(437.695312 0)"/>
      <use xlink:href="#DejaVuSans-3d" transform="translate(469.482422 0)"/>
      <use xlink:href="#DejaVuSans-20" transform="translate(553.271484 0)"/>
      <use xlink:href="#DejaVuSans-30" transform="translate(585.058594 0)"/>
      <use xlink:href="#DejaVuSans-2e" transform="translate(648.681641 0)"/>
      <use xlink:href="#DejaVuSans-36" transform="translate(680.46875 0)"/>
      <use xlink:href="#DejaVuSans-35" transform="translate(744.091797 0)"/>
      <use xlink:href="#DejaVuSans-39" transform="translate(807.714844 0)"/>
      <use xlink:href="#DejaVuSans-29" transform="translate(871.337891 0)"/>
     </g>
    </g>
    <g id="line2d_34">
     <path d="M 368.684687 375.460312 
L 378.684687 375.460312 
L 388.684687 375.460312 
" style="fill: none; stroke: #d62728; stroke-width: 1.5; stroke-linecap: square"/>
    </g>
    <g id="text_19">
     <!-- dog (AUC = 0.659) -->
     <g transform="translate(396.684687 378.960312) scale(0.1 -0.1)">
      <defs>
       <path id="DejaVuSans-64" d="M 2906 2969 
L 2906 4863 
L 3481 4863 
L 3481 0 
L 2906 0 
L 2906 525 
Q 2725 213 2448 61 
Q 2172 -91 1784 -91 
Q 1150 -91 751 415 
Q 353 922 353 1747 
Q 353 2572 751 3078 
Q 1150 3584 1784 3584 
Q 2172 3584 2448 3432 
Q 2725 3281 2906 2969 
z
M 947 1747 
Q 947 1113 1208 752 
Q 1469 391 1925 391 
Q 2381 391 2643 752 
Q 2906 1113 2906 1747 
Q 2906 2381 2643 2742 
Q 2381 3103 1925 3103 
Q 1469 3103 1208 2742 
Q 947 2381 947 1747 
z
" transform="scale(0.015625)"/>
      </defs>
      <use xlink:href="#DejaVuSans-64"/>
      <use xlink:href="#DejaVuSans-6f" transform="translate(63.476562 0)"/>
      <use xlink:href="#DejaVuSans-67" transform="translate(124.658203 0)"/>
      <use xlink:href="#DejaVuSans-20" transform="translate(188.134766 0)"/>
      <use xlink:href="#DejaVuSans-28" transform="translate(219.921875 0)"/>
      <use xlink:href="#DejaVuSans-41" transform="translate(258.935547 0)"/>
      <use xlink:href="#DejaVuSans-55" transform="translate(327.34375 0)"/>
      <use xlink:href="#DejaVuSans-43" transform="translate(400.537109 0)"/>
      <use xlink:href="#DejaVuSans-20" transform="translate(470.361328 0)"/>
      <use xlink:href="#DejaVuSans-3d" transform="translate(502.148438 0)"/>
      <use xlink:href="#DejaVuSans-20" transform="translate(585.9375 0)"/>
      <use xlink:href="#DejaVuSans-30" transform="translate(617.724609 0)"/>
      <use xlink:href="#DejaVuSans-2e" transform="translate(681.347656 0)"/>
      <use xlink:href="#DejaVuSans-36" transform="translate(713.134766 0)"/>
      <use xlink:href="#DejaVuSans-35" transform="translate(776.757812 0)"/>
      <use xlink:href="#DejaVuSans-39" transform="translate(840.380859 0)"/>
      <use xlink:href="#DejaVuSans-29" transform="translate(904.003906 0)"/>
     </g>
    </g>
   </g>
  </g>
 </g>
 <defs>
  <clipPath id="p5664f2dbe8">
   <rect x="47.72" y="26.88" width="509.56" height="363.16"/>
  </clipPath>
 </defs>
</svg>
