<?xml version="1.0" encoding="utf-8" standalone="no"?>
<!DOCTYPE svg PUBLIC "-//W3C//DTD SVG 1.1//EN"
  "http://www.w3.org/Graphics/SVG/1.1/DTD/svg11.dtd">
<svg xmlns:xlink="http://www.w3.org/1999/xlink" width="864pt" height="360pt" viewBox="0 0 864 360" xmlns="http://www.w3.org/2000/svg" version="1.1">
 <metadata>
  <rdf:RDF xmlns:dc="http://purl.org/dc/elements/1.1/" xmlns:cc="http://creativecommons.org/ns#" xmlns:rdf="http://www.w3.org/1999/02/22-rdf-syntax-ns#">
   <cc:Work>
    <dc:type rdf:resource="http://purl.org/dc/dcmitype/StillImage"/>
    <dc:date>2025-11-15T16:04:29.394405</dc:date>
    <dc:format>image/svg+xml</dc:format>
    <dc:creator>
     <cc:Agent>
      <dc:title>Matplotlib v3.10.1, https://matplotlib.org/</dc:title>
     </cc:Agent>
    </dc:creator>
   </cc:Work>
  </rdf:RDF>
 </metadata>
 <defs>
  <style type="text/css">*{stroke-linejoin: round; stroke-linecap: butt}</style>
 </defs>
 <g id="figure_1">
  <g id="patch_1">
   <path d="M 0 360 
L 864 360 
L 864 0 
L 0 0 
z
" style="fill: #ffffff"/>
  </g>
  <g id="axes_1">
   <g id="patch_2">
    <path d="M 38.27 318.04 
L 423.45 318.04 
L 423.45 26.88 
L 38.27 26.88 
z
" style="fill: #ffffff"/>
   </g>
   <g id="matplotlib.axis_1">
    <g id="xtick_1">
     <g id="line2d_1">
      <path d="M 52.241175 318.04 
L 52.241175 26.88 
" clip-path="url(#pd3f27cab92)" style="fill: none; stroke: #b0b0b0; stroke-width: 0.8; stroke-linecap: square"/>
     </g>
     <g id="line2d_2">
      <defs>
       <path id="m1c71f6b52a" d="M 0 0 
L 0 3.5 
" style="stroke: #000000; stroke-width: 0.8"/>
      </defs>
      <g>
       <use xlink:href="#m1c71f6b52a" x="52.241175" y="318.04" style="stroke: #000000; stroke-width: 0.8"/>
      </g>
     </g>
     <g id="text_1">
      <!-- 0 -->
      <g transform="translate(49.059925 332.638438) scale(0.1 -0.1)">
       <defs>
        <path id="DejaVuSans-30" d="M 2034 4250 
Q 1547 4250 1301 3770 
Q 1056 3291 1056 2328 
Q 1056 1369 1301 889 
Q 1547 409 2034 409 
Q 2525 409 2770 889 
Q 3016 1369 3016 2328 
Q 3016 3291 2770 3770 
Q 2525 4250 2034 4250 
z
M 2034 4750 
Q 2819 4750 3233 4129 
Q 3647 3509 3647 2328 
Q 3647 1150 3233 529 
Q 2819 -91 2034 -91 
Q 1250 -91 836 529 
Q 422 1150 422 2328 
Q 422 3509 836 4129 
Q 1250 4750 2034 4750 
z
" transform="scale(0.015625)"/>
       </defs>
       <use xlink:href="#DejaVuSans-30"/>
      </g>
     </g>
    </g>
    <g id="xtick_2">
     <g id="line2d_3">
      <path d="M 122.981304 318.04 
L 122.981304 26.88 
" clip-path="url(#pd3f27cab92)" style="fill: none; stroke: #b0b0b0; stroke-width: 0.8; stroke-linecap: square"/>
     </g>
     <g id="line2d_4">
      <g>
       <use xlink:href="#m1c71f6b52a" x="122.981304" y="318.04" style="stroke: #000000; stroke-width: 0.8"/>
      </g>
     </g>
     <g id="text_2">
      <!-- 20 -->
      <g transform="translate(116.618804 332.638438) scale(0.1 -0.1)">
       <defs>
        <path id="DejaVuSans-32" d="M 1228 531 
L 3431 531 
L 3431 0 
L 469 0 
L 469 531 
Q 828 903 1448 1529 
Q 2069 2156 2228 2338 
Q 2531 2678 2651 2914 
Q 2772 3150 2772 3378 
Q 2772 3750 2511 3984 
Q 2250 4219 1831 4219 
Q 1534 4219 1204 4116 
Q 875 4013 500 3803 
L 500 4441 
Q 881 4594 1212 4672 
Q 1544 4750 1819 4750 
Q 2544 4750 2975 4387 
Q 3406 4025 3406 3419 
Q 3406 3131 3298 2873 
Q 3191 2616 2906 2266 
Q 2828 2175 2409 1742 
Q 1991 1309 1228 531 
z
" transform="scale(0.015625)"/>
       </defs>
       <use xlink:href="#DejaVuSans-32"/>
       <use xlink:href="#DejaVuSans-30" transform="translate(63.623047 0)"/>
      </g>
     </g>
    </g>
    <g id="xtick_3">
     <g id="line2d_5">
      <path d="M 193.721433 318.04 
L 193.721433 26.88 
" clip-path="url(#pd3f27cab92)" style="fill: none; stroke: #b0b0b0; stroke-width: 0.8; stroke-linecap: square"/>
     </g>
     <g id="line2d_6">
      <g>
       <use xlink:href="#m1c71f6b52a" x="193.721433" y="318.04" style="stroke: #000000; stroke-width: 0.8"/>
      </g>
     </g>
     <g id="text_3">
      <!-- 40 -->
      <g transform="translate(187.358933 332.638438) scale(0.1 -0.1)">
       <defs>
        <path id="DejaVuSans-34" d="M 2419 4116 
L 825 1625 
L 2419 1625 
L 2419 4116 
z
M 2253 4666 
L 3047 4666 
L 3047 1625 
L 3713 1625 
L 3713 1100 
L 3047 1100 
L 3047 0 
L 2419 0 
L 2419 1100 
L 313 1100 
L 313 1709 
L 2253 4666 
z
" transform="scale(0.015625)"/>
       </defs>
       <use xlink:href="#DejaVuSans-34"/>
       <use xlink:href="#DejaVuSans-30" transform="translate(63.623047 0)"/>
      </g>
     </g>
    </g>
    <g id="xtick_4">
     <g id="line2d_7">
      <path d="M 264.461561 318.04 
L 264.461561 26.88 
" clip-path="url(#pd3f27cab92)" style="fill: none; stroke: #b0b0b0; stroke-width: 0.8; stroke-linecap: square"/>
     </g>
     <g id="line2d_8">
      <g>
       <use xlink:href="#m1c71f6b52a" x="264.461561" y="318.04" style="stroke: #000000; stroke-width: 0.8"/>
      </g>
     </g>
     <g id="text_4">
      <!-- 60 -->
      <g transform="translate(258.099061 332.638438) scale(0.1 -0.1)">
       <defs>
        <path id="DejaVuSans-36" d="M 2113 2584 
Q 1688 2584 1439 2293 
Q 1191 2003 1191 1497 
Q 1191 994 1439 701 
Q 1688 409 2113 409 
Q 2538 409 2786 701 
Q 3034 994 3034 1497 
Q 3034 2003 2786 2293 
Q 2538 2584 2113 2584 
z
M 3366 4563 
L 3366 3988 
Q 3128 4100 2886 4159 
Q 2644 4219 2406 4219 
Q 1781 4219 1451 3797 
Q 1122 3375 1075 2522 
Q 1259 2794 1537 2939 
Q 1816 3084 2150 3084 
Q 2853 3084 3261 2657 
Q 3669 2231 3669 1497 
Q 3669 778 3244 343 
Q 2819 -91 2113 -91 
Q 1303 -91 875 529 
Q 447 1150 447 2328 
Q 447 3434 972 4092 
Q 1497 4750 2381 4750 
Q 2619 4750 2861 4703 
Q 3103 4656 3366 4563 
z
" transform="scale(0.015625)"/>
       </defs>
       <use xlink:href="#DejaVuSans-36"/>
       <use xlink:href="#DejaVuSans-30" transform="translate(63.623047 0)"/>
      </g>
     </g>
    </g>
    <g id="xtick_5">
     <g id="line2d_9">
      <path d="M 335.20169 318.04 
L 335.20169 26.88 
" clip-path="url(#pd3f27cab92)" style="fill: none; stroke: #b0b0b0; stroke-width: 0.8; stroke-linecap: square"/>
     </g>
     <g id="line2d_10">
      <g>
       <use xlink:href="#m1c71f6b52a" x="335.20169" y="318.04" style="stroke: #000000; stroke-width: 0.8"/>
      </g>
     </g>
     <g id="text_5">
      <!-- 80 -->
      <g transform="translate(328.83919 332.638438) scale(0.1 -0.1)">
       <defs>
        <path id="DejaVuSans-38" d="M 2034 2216 
Q 1584 2216 1326 1975 
Q 1069 1734 1069 1313 
Q 1069 891 1326 650 
Q 1584 409 2034 409 
Q 2484 409 2743 651 
Q 3003 894 3003 1313 
Q 3003 1734 2745 1975 
Q 2488 2216 2034 2216 
z
M 1403 2484 
Q 997 2584 770 2862 
Q 544 3141 544 3541 
Q 544 4100 942 4425 
Q 1341 4750 2034 4750 
Q 2731 4750 3128 4425 
Q 3525 4100 3525 3541 
Q 3525 3141 3298 2862 
Q 3072 2584 2669 2484 
Q 3125 2378 3379 2068 
Q 3634 1759 3634 1313 
Q 3634 634 3220 271 
Q 2806 -91 2034 -91 
Q 1263 -91 848 271 
Q 434 634 434 1313 
Q 434 1759 690 2068 
Q 947 2378 1403 2484 
z
M 1172 3481 
Q 1172 3119 1398 2916 
Q 1625 2713 2034 2713 
Q 2441 2713 2670 2916 
Q 2900 3119 2900 3481 
Q 2900 3844 2670 4047 
Q 2441 4250 2034 4250 
Q 1625 4250 1398 4047 
Q 1172 3844 1172 3481 
z
" transform="scale(0.015625)"/>
       </defs>
       <use xlink:href="#DejaVuSans-38"/>
       <use xlink:href="#DejaVuSans-30" transform="translate(63.623047 0)"/>
      </g>
     </g>
    </g>
    <g id="xtick_6">
     <g id="line2d_11">
      <path d="M 405.941818 318.04 
L 405.941818 26.88 
" clip-path="url(#pd3f27cab92)" style="fill: none; stroke: #b0b0b0; stroke-width: 0.8; stroke-linecap: square"/>
     </g>
     <g id="line2d_12">
      <g>
       <use xlink:href="#m1c71f6b52a" x="405.941818" y="318.04" style="stroke: #000000; stroke-width: 0.8"/>
      </g>
     </g>
     <g id="text_6">
      <!-- 100 -->
      <g transform="translate(396.398068 332.638438) scale(0.1 -0.1)">
       <defs>
        <path id="DejaVuSans-31" d="M 794 531 
L 1825 531 
L 1825 4091 
L 703 3866 
L 703 4441 
L 1819 4666 
L 2450 4666 
L 2450 531 
L 3481 531 
L 3481 0 
L 794 0 
L 794 531 
z
" transform="scale(0.015625)"/>
       </defs>
       <use xlink:href="#DejaVuSans-31"/>
       <use xlink:href="#DejaVuSans-30" transform="translate(63.623047 0)"/>
       <use xlink:href="#DejaVuSans-30" transform="translate(127.246094 0)"/>
      </g>
     </g>
    </g>
    <g id="text_7">
     <!-- Epoch -->
     <g transform="translate(215.549063 346.316563) scale(0.1 -0.1)">
      <defs>
       <path id="DejaVuSans-45" d="M 628 4666 
L 3578 4666 
L 3578 4134 
L 1259 4134 
L 1259 2753 
L 3481 2753 
L 3481 2222 
L 1259 2222 
L 1259 531 
L 3634 531 
L 3634 0 
L 628 0 
L 628 4666 
z
" transform="scale(0.015625)"/>
       <path id="DejaVuSans-70" d="M 1159 525 
L 1159 -1331 
L 581 -1331 
L 581 3500 
L 1159 3500 
L 1159 2969 
Q 1341 3281 1617 3432 
Q 1894 3584 2278 3584 
Q 2916 3584 3314 3078 
Q 3713 2572 3713 1747 
Q 3713 922 3314 415 
Q 2916 -91 2278 -91 
Q 1894 -91 1617 61 
Q 1341 213 1159 525 
z
M 3116 1747 
Q 3116 2381 2855 2742 
Q 2594 3103 2138 3103 
Q 1681 3103 1420 2742 
Q 1159 2381 1159 1747 
Q 1159 1113 1420 752 
Q 1681 391 2138 391 
Q 2594 391 2855 752 
Q 3116 1113 3116 1747 
z
" transform="scale(0.015625)"/>
       <path id="DejaVuSans-6f" d="M 1959 3097 
Q 1497 3097 1228 2736 
Q 959 2375 959 1747 
Q 959 1119 1226 758 
Q 1494 397 1959 397 
Q 2419 397 2687 759 
Q 2956 1122 2956 1747 
Q 2956 2369 2687 2733 
Q 2419 3097 1959 3097 
z
M 1959 3584 
Q 2709 3584 3137 3096 
Q 3566 2609 3566 1747 
Q 3566 888 3137 398 
Q 2709 -91 1959 -91 
Q 1206 -91 779 398 
Q 353 888 353 1747 
Q 353 2609 779 3096 
Q 1206 3584 1959 3584 
z
" transform="scale(0.015625)"/>
       <path id="DejaVuSans-63" d="M 3122 3366 
L 3122 2828 
Q 2878 2963 2633 3030 
Q 2388 3097 2138 3097 
Q 1578 3097 1268 2742 
Q 959 2388 959 1747 
Q 959 1106 1268 751 
Q 1578 397 2138 397 
Q 2388 397 2633 464 
Q 2878 531 3122 666 
L 3122 134 
Q 2881 22 2623 -34 
Q 2366 -91 2075 -91 
Q 1284 -91 818 406 
Q 353 903 353 1747 
Q 353 2603 823 3093 
Q 1294 3584 2113 3584 
Q 2378 3584 2631 3529 
Q 2884 3475 3122 3366 
z
" transform="scale(0.015625)"/>
       <path id="DejaVuSans-68" d="M 3513 2113 
L 3513 0 
L 2938 0 
L 2938 2094 
Q 2938 2591 2744 2837 
Q 2550 3084 2163 3084 
Q 1697 3084 1428 2787 
Q 1159 2491 1159 1978 
L 1159 0 
L 581 0 
L 581 4863 
L 1159 4863 
L 1159 2956 
Q 1366 3272 1645 3428 
Q 1925 3584 2291 3584 
Q 2894 3584 3203 3211 
Q 3513 2838 3513 2113 
z
" transform="scale(0.015625)"/>
      </defs>
      <use xlink:href="#DejaVuSans-45"/>
      <use xlink:href="#DejaVuSans-70" transform="translate(63.183594 0)"/>
      <use xlink:href="#DejaVuSans-6f" transform="translate(126.660156 0)"/>
      <use xlink:href="#DejaVuSans-63" transform="translate(187.841797 0)"/>
      <use xlink:href="#DejaVuSans-68" transform="translate(242.822266 0)"/>
     </g>
    </g>
   </g>
   <g id="matplotlib.axis_2">
    <g id="ytick_1">
     <g id="line2d_13">
      <path d="M 38.27 292.223731 
L 423.45 292.223731 
" clip-path="url(#pd3f27cab92)" style="fill: none; stroke: #b0b0b0; stroke-width: 0.8; stroke-linecap: square"/>
     </g>
     <g id="line2d_14">
      <defs>
       <path id="mb45c38f39d" d="M 0 0 
L -3.5 0 
" style="stroke: #000000; stroke-width: 0.8"/>
      </defs>
      <g>
       <use xlink:href="#mb45c38f39d" x="38.27" y="292.223731" style="stroke: #000000; stroke-width: 0.8"/>
      </g>
     </g>
     <g id="text_8">
      <!-- 1 -->
      <g transform="translate(24.9075 296.02295) scale(0.1 -0.1)">
       <use xlink:href="#DejaVuSans-31"/>
      </g>
     </g>
    </g>
    <g id="ytick_2">
     <g id="line2d_15">
      <path d="M 38.27 251.283004 
L 423.45 251.283004 
" clip-path="url(#pd3f27cab92)" style="fill: none; stroke: #b0b0b0; stroke-width: 0.8; stroke-linecap: square"/>
     </g>
     <g id="line2d_16">
      <g>
       <use xlink:href="#mb45c38f39d" x="38.27" y="251.283004" style="stroke: #000000; stroke-width: 0.8"/>
      </g>
     </g>
     <g id="text_9">
      <!-- 2 -->
      <g transform="translate(24.9075 255.082223) scale(0.1 -0.1)">
       <use xlink:href="#DejaVuSans-32"/>
      </g>
     </g>
    </g>
    <g id="ytick_3">
     <g id="line2d_17">
      <path d="M 38.27 210.342276 
L 423.45 210.342276 
" clip-path="url(#pd3f27cab92)" style="fill: none; stroke: #b0b0b0; stroke-width: 0.8; stroke-linecap: square"/>
     </g>
     <g id="line2d_18">
      <g>
       <use xlink:href="#mb45c38f39d" x="38.27" y="210.342276" style="stroke: #000000; stroke-width: 0.8"/>
      </g>
     </g>
     <g id="text_10">
      <!-- 3 -->
      <g transform="translate(24.9075 214.141495) scale(0.1 -0.1)">
       <defs>
        <path id="DejaVuSans-33" d="M 2597 2516 
Q 3050 2419 3304 2112 
Q 3559 1806 3559 1356 
Q 3559 666 3084 287 
Q 2609 -91 1734 -91 
Q 1441 -91 1130 -33 
Q 819 25 488 141 
L 488 750 
Q 750 597 1062 519 
Q 1375 441 1716 441 
Q 2309 441 2620 675 
Q 2931 909 2931 1356 
Q 2931 1769 2642 2001 
Q 2353 2234 1838 2234 
L 1294 2234 
L 1294 2753 
L 1863 2753 
Q 2328 2753 2575 2939 
Q 2822 3125 2822 3475 
Q 2822 3834 2567 4026 
Q 2313 4219 1838 4219 
Q 1578 4219 1281 4162 
Q 984 4106 628 3988 
L 628 4550 
Q 988 4650 1302 4700 
Q 1616 4750 1894 4750 
Q 2613 4750 3031 4423 
Q 3450 4097 3450 3541 
Q 3450 3153 3228 2886 
Q 3006 2619 2597 2516 
z
" transform="scale(0.015625)"/>
       </defs>
       <use xlink:href="#DejaVuSans-33"/>
      </g>
     </g>
    </g>
    <g id="ytick_4">
     <g id="line2d_19">
      <path d="M 38.27 169.401548 
L 423.45 169.401548 
" clip-path="url(#pd3f27cab92)" style="fill: none; stroke: #b0b0b0; stroke-width: 0.8; stroke-linecap: square"/>
     </g>
     <g id="line2d_20">
      <g>
       <use xlink:href="#mb45c38f39d" x="38.27" y="169.401548" style="stroke: #000000; stroke-width: 0.8"/>
      </g>
     </g>
     <g id="text_11">
      <!-- 4 -->
      <g transform="translate(24.9075 173.200767) scale(0.1 -0.1)">
       <use xlink:href="#DejaVuSans-34"/>
      </g>
     </g>
    </g>
    <g id="ytick_5">
     <g id="line2d_21">
      <path d="M 38.27 128.460821 
L 423.45 128.460821 
" clip-path="url(#pd3f27cab92)" style="fill: none; stroke: #b0b0b0; stroke-width: 0.8; stroke-linecap: square"/>
     </g>
     <g id="line2d_22">
      <g>
       <use xlink:href="#mb45c38f39d" x="38.27" y="128.460821" style="stroke: #000000; stroke-width: 0.8"/>
      </g>
     </g>
     <g id="text_12">
      <!-- 5 -->
      <g transform="translate(24.9075 132.260039) scale(0.1 -0.1)">
       <defs>
        <path id="DejaVuSans-35" d="M 691 4666 
L 3169 4666 
L 3169 4134 
L 1269 4134 
L 1269 2991 
Q 1406 3038 1543 3061 
Q 1681 3084 1819 3084 
Q 2600 3084 3056 2656 
Q 3513 2228 3513 1497 
Q 3513 744 3044 326 
Q 2575 -91 1722 -91 
Q 1428 -91 1123 -41 
Q 819 9 494 109 
L 494 744 
Q 775 591 1075 516 
Q 1375 441 1709 441 
Q 2250 441 2565 725 
Q 2881 1009 2881 1497 
Q 2881 1984 2565 2268 
Q 2250 2553 1709 2553 
Q 1456 2553 1204 2497 
Q 953 2441 691 2322 
L 691 4666 
z
" transform="scale(0.015625)"/>
       </defs>
       <use xlink:href="#DejaVuSans-35"/>
      </g>
     </g>
    </g>
    <g id="ytick_6">
     <g id="line2d_23">
      <path d="M 38.27 87.520093 
L 423.45 87.520093 
" clip-path="url(#pd3f27cab92)" style="fill: none; stroke: #b0b0b0; stroke-width: 0.8; stroke-linecap: square"/>
     </g>
     <g id="line2d_24">
      <g>
       <use xlink:href="#mb45c38f39d" x="38.27" y="87.520093" style="stroke: #000000; stroke-width: 0.8"/>
      </g>
     </g>
     <g id="text_13">
      <!-- 6 -->
      <g transform="translate(24.9075 91.319312) scale(0.1 -0.1)">
       <use xlink:href="#DejaVuSans-36"/>
      </g>
     </g>
    </g>
    <g id="ytick_7">
     <g id="line2d_25">
      <path d="M 38.27 46.579365 
L 423.45 46.579365 
" clip-path="url(#pd3f27cab92)" style="fill: none; stroke: #b0b0b0; stroke-width: 0.8; stroke-linecap: square"/>
     </g>
     <g id="line2d_26">
      <g>
       <use xlink:href="#mb45c38f39d" x="38.27" y="46.579365" style="stroke: #000000; stroke-width: 0.8"/>
      </g>
     </g>
     <g id="text_14">
      <!-- 7 -->
      <g transform="translate(24.9075 50.378584) scale(0.1 -0.1)">
       <defs>
        <path id="DejaVuSans-37" d="M 525 4666 
L 3525 4666 
L 3525 4397 
L 1831 0 
L 1172 0 
L 2766 4134 
L 525 4134 
L 525 4666 
z
" transform="scale(0.015625)"/>
       </defs>
       <use xlink:href="#DejaVuSans-37"/>
      </g>
     </g>
    </g>
    <g id="text_15">
     <!-- Loss -->
     <g transform="translate(18.827813 183.427188) rotate(-90) scale(0.1 -0.1)">
      <defs>
       <path id="DejaVuSans-4c" d="M 628 4666 
L 1259 4666 
L 1259 531 
L 3531 531 
L 3531 0 
L 628 0 
L 628 4666 
z
" transform="scale(0.015625)"/>
       <path id="DejaVuSans-73" d="M 2834 3397 
L 2834 2853 
Q 2591 2978 2328 3040 
Q 2066 3103 1784 3103 
Q 1356 3103 1142 2972 
Q 928 2841 928 2578 
Q 928 2378 1081 2264 
Q 1234 2150 1697 2047 
L 1894 2003 
Q 2506 1872 2764 1633 
Q 3022 1394 3022 966 
Q 3022 478 2636 193 
Q 2250 -91 1575 -91 
Q 1294 -91 989 -36 
Q 684 19 347 128 
L 347 722 
Q 666 556 975 473 
Q 1284 391 1588 391 
Q 1994 391 2212 530 
Q 2431 669 2431 922 
Q 2431 1156 2273 1281 
Q 2116 1406 1581 1522 
L 1381 1569 
Q 847 1681 609 1914 
Q 372 2147 372 2553 
Q 372 3047 722 3315 
Q 1072 3584 1716 3584 
Q 2034 3584 2315 3537 
Q 2597 3491 2834 3397 
z
" transform="scale(0.015625)"/>
      </defs>
      <use xlink:href="#DejaVuSans-4c"/>
      <use xlink:href="#DejaVuSans-6f" transform="translate(53.962891 0)"/>
      <use xlink:href="#DejaVuSans-73" transform="translate(115.144531 0)"/>
      <use xlink:href="#DejaVuSans-73" transform="translate(167.244141 0)"/>
     </g>
    </g>
   </g>
   <g id="line2d_27">
    <path d="M 55.778182 40.114545 
L 59.315188 304.388992 
L 62.852195 304.532306 
L 66.389201 304.734478 
L 69.926208 304.784623 
L 73.463214 304.765466 
L 77.00022 304.774792 
L 80.537227 304.737604 
L 84.074233 304.747547 
L 87.61124 304.610355 
L 91.148246 304.777568 
L 94.685253 304.777145 
L 98.222259 304.778172 
L 101.759265 304.769859 
L 105.296272 304.737784 
L 108.833278 304.755233 
L 112.370285 304.772662 
L 115.907291 304.782257 
L 119.444298 304.78069 
L 122.981304 304.777831 
L 126.51831 304.778518 
L 130.055317 304.784191 
L 133.592323 304.785289 
L 137.12933 304.784929 
L 140.666336 304.782772 
L 144.203343 304.783442 
L 147.740349 304.785154 
L 151.277355 304.783823 
L 154.814362 304.78233 
L 158.351368 304.784731 
L 161.888375 304.783884 
L 165.425381 304.785826 
L 168.962388 304.78588 
L 172.499394 304.781945 
L 176.0364 304.784688 
L 179.573407 304.786149 
L 183.110413 304.786954 
L 186.64742 304.785373 
L 190.184426 304.787191 
L 193.721433 304.785408 
L 197.258439 304.786845 
L 200.795445 304.785885 
L 204.332452 304.785226 
L 207.869458 304.784836 
L 211.406465 304.786616 
L 214.943471 304.787499 
L 218.480478 304.781582 
L 222.017484 304.786173 
L 225.55449 304.785994 
L 229.091497 304.787856 
L 232.628503 304.786457 
L 236.16551 304.785711 
L 239.702516 304.785668 
L 243.239522 304.786384 
L 246.776529 304.786087 
L 250.313535 304.785315 
L 253.850542 304.786831 
L 257.387548 304.786816 
L 260.924555 304.787764 
L 264.461561 304.78482 
L 267.998567 304.78723 
L 271.535574 304.786553 
L 275.07258 304.785865 
L 278.609587 304.785681 
L 282.146593 304.7851 
L 285.6836 304.788316 
L 289.220606 304.784438 
L 292.757612 304.7844 
L 296.294619 304.785996 
L 299.831625 304.785575 
L 303.368632 304.786943 
L 306.905638 304.786071 
L 310.442645 304.78665 
L 313.979651 304.785282 
L 317.516657 304.787031 
L 321.053664 304.786459 
L 324.59067 304.786874 
L 328.127677 304.786885 
L 331.664683 304.786359 
L 335.20169 304.786345 
L 338.738696 304.785903 
L 342.275702 304.78676 
L 345.812709 304.787094 
L 349.349715 304.784648 
L 352.886722 304.786904 
L 356.423728 304.786732 
L 359.960735 304.787091 
L 363.497741 304.786951 
L 367.034747 304.787408 
L 370.571754 304.785843 
L 374.10876 304.786682 
L 377.645767 304.786215 
L 381.182773 304.786953 
L 384.71978 304.787076 
L 388.256786 304.78674 
L 391.793792 304.786412 
L 395.330799 304.787101 
L 398.867805 304.786678 
L 402.404812 304.786195 
L 405.941818 304.786941 
" clip-path="url(#pd3f27cab92)" style="fill: none; stroke: #1f77b4; stroke-width: 1.5; stroke-linecap: square"/>
   </g>
   <g id="line2d_28">
    <path d="M 55.778182 304.782769 
L 59.315188 304.785737 
L 62.852195 304.783868 
L 66.389201 304.771922 
L 69.926208 304.805455 
L 73.463214 304.779105 
L 77.00022 304.785963 
L 80.537227 304.784487 
L 84.074233 304.788656 
L 87.61124 304.78832 
L 91.148246 304.779618 
L 94.685253 304.788681 
L 98.222259 304.785362 
L 101.759265 304.782718 
L 105.296272 304.802879 
L 108.833278 304.780845 
L 112.370285 304.786682 
L 115.907291 304.786601 
L 119.444298 304.78649 
L 122.981304 304.784829 
L 126.51831 304.785333 
L 130.055317 304.786403 
L 133.592323 304.784699 
L 137.12933 304.789118 
L 140.666336 304.783256 
L 144.203343 304.786628 
L 147.740349 304.787351 
L 151.277355 304.786382 
L 154.814362 304.787523 
L 158.351368 304.785139 
L 161.888375 304.786166 
L 165.425381 304.786264 
L 168.962388 304.786238 
L 172.499394 304.786328 
L 176.0364 304.7865 
L 179.573407 304.785544 
L 183.110413 304.786492 
L 186.64742 304.787193 
L 190.184426 304.786432 
L 193.721433 304.78647 
L 197.258439 304.785999 
L 200.795445 304.786494 
L 204.332452 304.78636 
L 207.869458 304.786671 
L 211.406465 304.786668 
L 214.943471 304.78673 
L 218.480478 304.786777 
L 222.017484 304.786157 
L 225.55449 304.786734 
L 229.091497 304.786504 
L 232.628503 304.786498 
L 236.16551 304.786294 
L 239.702516 304.786505 
L 243.239522 304.787361 
L 246.776529 304.786725 
L 250.313535 304.786063 
L 253.850542 304.786285 
L 257.387548 304.786089 
L 260.924555 304.786695 
L 264.461561 304.786506 
L 267.998567 304.786297 
L 271.535574 304.786685 
L 275.07258 304.786503 
L 278.609587 304.786509 
L 282.146593 304.786506 
L 285.6836 304.786692 
L 289.220606 304.786676 
L 292.757612 304.78688 
L 296.294619 304.786851 
L 299.831625 304.786847 
L 303.368632 304.786876 
L 306.905638 304.785972 
L 310.442645 304.785971 
L 313.979651 304.786861 
L 317.516657 304.786507 
L 321.053664 304.78704 
L 324.59067 304.786327 
L 328.127677 304.78668 
L 331.664683 304.786871 
L 335.20169 304.786508 
L 338.738696 304.786506 
L 342.275702 304.78633 
L 345.812709 304.786328 
L 349.349715 304.786328 
L 352.886722 304.786685 
L 356.423728 304.78615 
L 359.960735 304.786504 
L 363.497741 304.786861 
L 367.034747 304.786678 
L 370.571754 304.786156 
L 374.10876 304.786507 
L 377.645767 304.786679 
L 381.182773 304.786156 
L 384.71978 304.78633 
L 388.256786 304.786856 
L 391.793792 304.786858 
L 395.330799 304.78633 
L 398.867805 304.786506 
L 402.404812 304.786154 
L 405.941818 304.786857 
" clip-path="url(#pd3f27cab92)" style="fill: none; stroke: #ff7f0e; stroke-width: 1.5; stroke-linecap: square"/>
   </g>
   <g id="patch_3">
    <path d="M 38.27 318.04 
L 38.27 26.88 
" style="fill: none; stroke: #000000; stroke-width: 0.8; stroke-linejoin: miter; stroke-linecap: square"/>
   </g>
   <g id="patch_4">
    <path d="M 423.45 318.04 
L 423.45 26.88 
" style="fill: none; stroke: #000000; stroke-width: 0.8; stroke-linejoin: miter; stroke-linecap: square"/>
   </g>
   <g id="patch_5">
    <path d="M 38.27 318.04 
L 423.45 318.04 
" style="fill: none; stroke: #000000; stroke-width: 0.8; stroke-linejoin: miter; stroke-linecap: square"/>
   </g>
   <g id="patch_6">
    <path d="M 38.27 26.88 
L 423.45 26.88 
" style="fill: none; stroke: #000000; stroke-width: 0.8; stroke-linejoin: miter; stroke-linecap: square"/>
   </g>
   <g id="text_16">
    <!-- Training Loss - Classical NN Training History -->
    <g transform="translate(100.33375 20.88) scale(0.12 -0.12)">
     <defs>
      <path id="DejaVuSans-54" d="M -19 4666 
L 3928 4666 
L 3928 4134 
L 2272 4134 
L 2272 0 
L 1638 0 
L 1638 4134 
L -19 4134 
L -19 4666 
z
" transform="scale(0.015625)"/>
      <path id="DejaVuSans-72" d="M 2631 2963 
Q 2534 3019 2420 3045 
Q 2306 3072 2169 3072 
Q 1681 3072 1420 2755 
Q 1159 2438 1159 1844 
L 1159 0 
L 581 0 
L 581 3500 
L 1159 3500 
L 1159 2956 
Q 1341 3275 1631 3429 
Q 1922 3584 2338 3584 
Q 2397 3584 2469 3576 
Q 2541 3569 2628 3553 
L 2631 2963 
z
" transform="scale(0.015625)"/>
      <path id="DejaVuSans-61" d="M 2194 1759 
Q 1497 1759 1228 1600 
Q 959 1441 959 1056 
Q 959 750 1161 570 
Q 1363 391 1709 391 
Q 2188 391 2477 730 
Q 2766 1069 2766 1631 
L 2766 1759 
L 2194 1759 
z
M 3341 1997 
L 3341 0 
L 2766 0 
L 2766 531 
Q 2569 213 2275 61 
Q 1981 -91 1556 -91 
Q 1019 -91 701 211 
Q 384 513 384 1019 
Q 384 1609 779 1909 
Q 1175 2209 1959 2209 
L 2766 2209 
L 2766 2266 
Q 2766 2663 2505 2880 
Q 2244 3097 1772 3097 
Q 1472 3097 1187 3025 
Q 903 2953 641 2809 
L 641 3341 
Q 956 3463 1253 3523 
Q 1550 3584 1831 3584 
Q 2591 3584 2966 3190 
Q 3341 2797 3341 1997 
z
" transform="scale(0.015625)"/>
      <path id="DejaVuSans-69" d="M 603 3500 
L 1178 3500 
L 1178 0 
L 603 0 
L 603 3500 
z
M 603 4863 
L 1178 4863 
L 1178 4134 
L 603 4134 
L 603 4863 
z
" transform="scale(0.015625)"/>
      <path id="DejaVuSans-6e" d="M 3513 2113 
L 3513 0 
L 2938 0 
L 2938 2094 
Q 2938 2591 2744 2837 
Q 2550 3084 2163 3084 
Q 1697 3084 1428 2787 
Q 1159 2491 1159 1978 
L 1159 0 
L 581 0 
L 581 3500 
L 1159 3500 
L 1159 2956 
Q 1366 3272 1645 3428 
Q 1925 3584 2291 3584 
Q 2894 3584 3203 3211 
Q 3513 2838 3513 2113 
z
" transform="scale(0.015625)"/>
      <path id="DejaVuSans-67" d="M 2906 1791 
Q 2906 2416 2648 2759 
Q 2391 3103 1925 3103 
Q 1463 3103 1205 2759 
Q 947 2416 947 1791 
Q 947 1169 1205 825 
Q 1463 481 1925 481 
Q 2391 481 2648 825 
Q 2906 1169 2906 1791 
z
M 3481 434 
Q 3481 -459 3084 -895 
Q 2688 -1331 1869 -1331 
Q 1566 -1331 1297 -1286 
Q 1028 -1241 775 -1147 
L 775 -588 
Q 1028 -725 1275 -790 
Q 1522 -856 1778 -856 
Q 2344 -856 2625 -561 
Q 2906 -266 2906 331 
L 2906 616 
Q 2728 306 2450 153 
Q 2172 0 1784 0 
Q 1141 0 747 490 
Q 353 981 353 1791 
Q 353 2603 747 3093 
Q 1141 3584 1784 3584 
Q 2172 3584 2450 3431 
Q 2728 3278 2906 2969 
L 2906 3500 
L 3481 3500 
L 3481 434 
z
" transform="scale(0.015625)"/>
      <path id="DejaVuSans-20" transform="scale(0.015625)"/>
      <path id="DejaVuSans-2d" d="M 313 2009 
L 1997 2009 
L 1997 1497 
L 313 1497 
L 313 2009 
z
" transform="scale(0.015625)"/>
      <path id="DejaVuSans-43" d="M 4122 4306 
L 4122 3641 
Q 3803 3938 3442 4084 
Q 3081 4231 2675 4231 
Q 1875 4231 1450 3742 
Q 1025 3253 1025 2328 
Q 1025 1406 1450 917 
Q 1875 428 2675 428 
Q 3081 428 3442 575 
Q 3803 722 4122 1019 
L 4122 359 
Q 3791 134 3420 21 
Q 3050 -91 2638 -91 
Q 1578 -91 968 557 
Q 359 1206 359 2328 
Q 359 3453 968 4101 
Q 1578 4750 2638 4750 
Q 3056 4750 3426 4639 
Q 3797 4528 4122 4306 
z
" transform="scale(0.015625)"/>
      <path id="DejaVuSans-6c" d="M 603 4863 
L 1178 4863 
L 1178 0 
L 603 0 
L 603 4863 
z
" transform="scale(0.015625)"/>
      <path id="DejaVuSans-4e" d="M 628 4666 
L 1478 4666 
L 3547 763 
L 3547 4666 
L 4159 4666 
L 4159 0 
L 3309 0 
L 1241 3903 
L 1241 0 
L 628 0 
L 628 4666 
z
" transform="scale(0.015625)"/>
      <path id="DejaVuSans-48" d="M 628 4666 
L 1259 4666 
L 1259 2753 
L 3553 2753 
L 3553 4666 
L 4184 4666 
L 4184 0 
L 3553 0 
L 3553 2222 
L 1259 2222 
L 1259 0 
L 628 0 
L 628 4666 
z
" transform="scale(0.015625)"/>
      <path id="DejaVuSans-74" d="M 1172 4494 
L 1172 3500 
L 2356 3500 
L 2356 3053 
L 1172 3053 
L 1172 1153 
Q 1172 725 1289 603 
Q 1406 481 1766 481 
L 2356 481 
L 2356 0 
L 1766 0 
Q 1100 0 847 248 
Q 594 497 594 1153 
L 594 3053 
L 172 3053 
L 172 3500 
L 594 3500 
L 594 4494 
L 1172 4494 
z
" transform="scale(0.015625)"/>
      <path id="DejaVuSans-79" d="M 2059 -325 
Q 1816 -950 1584 -1140 
Q 1353 -1331 966 -1331 
L 506 -1331 
L 506 -850 
L 844 -850 
Q 1081 -850 1212 -737 
Q 1344 -625 1503 -206 
L 1606 56 
L 191 3500 
L 800 3500 
L 1894 763 
L 2988 3500 
L 3597 3500 
L 2059 -325 
z
" transform="scale(0.015625)"/>
     </defs>
     <use xlink:href="#DejaVuSans-54"/>
     <use xlink:href="#DejaVuSans-72" transform="translate(46.333984 0)"/>
     <use xlink:href="#DejaVuSans-61" transform="translate(87.447266 0)"/>
     <use xlink:href="#DejaVuSans-69" transform="translate(148.726562 0)"/>
     <use xlink:href="#DejaVuSans-6e" transform="translate(176.509766 0)"/>
     <use xlink:href="#DejaVuSans-69" transform="translate(239.888672 0)"/>
     <use xlink:href="#DejaVuSans-6e" transform="translate(267.671875 0)"/>
     <use xlink:href="#DejaVuSans-67" transform="translate(331.050781 0)"/>
     <use xlink:href="#DejaVuSans-20" transform="translate(394.527344 0)"/>
     <use xlink:href="#DejaVuSans-4c" transform="translate(426.314453 0)"/>
     <use xlink:href="#DejaVuSans-6f" transform="translate(480.277344 0)"/>
     <use xlink:href="#DejaVuSans-73" transform="translate(541.458984 0)"/>
     <use xlink:href="#DejaVuSans-73" transform="translate(593.558594 0)"/>
     <use xlink:href="#DejaVuSans-20" transform="translate(645.658203 0)"/>
     <use xlink:href="#DejaVuSans-2d" transform="translate(677.445312 0)"/>
     <use xlink:href="#DejaVuSans-20" transform="translate(713.529297 0)"/>
     <use xlink:href="#DejaVuSans-43" transform="translate(745.316406 0)"/>
     <use xlink:href="#DejaVuSans-6c" transform="translate(815.140625 0)"/>
     <use xlink:href="#DejaVuSans-61" transform="translate(842.923828 0)"/>
     <use xlink:href="#DejaVuSans-73" transform="translate(904.203125 0)"/>
     <use xlink:href="#DejaVuSans-73" transform="translate(956.302734 0)"/>
     <use xlink:href="#DejaVuSans-69" transform="translate(1008.402344 0)"/>
     <use xlink:href="#DejaVuSans-63" transform="translate(1036.185547 0)"/>
     <use xlink:href="#DejaVuSans-61" transform="translate(1091.166016 0)"/>
     <use xlink:href="#DejaVuSans-6c" transform="translate(1152.445312 0)"/>
     <use xlink:href="#DejaVuSans-20" transform="translate(1180.228516 0)"/>
     <use xlink:href="#DejaVuSans-4e" transform="translate(1212.015625 0)"/>
     <use xlink:href="#DejaVuSans-4e" transform="translate(1286.820312 0)"/>
     <use xlink:href="#DejaVuSans-20" transform="translate(1361.625 0)"/>
     <use xlink:href="#DejaVuSans-54" transform="translate(1393.412109 0)"/>
     <use xlink:href="#DejaVuSans-72" transform="translate(1439.746094 0)"/>
     <use xlink:href="#DejaVuSans-61" transform="translate(1480.859375 0)"/>
     <use xlink:href="#DejaVuSans-69" transform="translate(1542.138672 0)"/>
     <use xlink:href="#DejaVuSans-6e" transform="translate(1569.921875 0)"/>
     <use xlink:href="#DejaVuSans-69" transform="translate(1633.300781 0)"/>
     <use xlink:href="#DejaVuSans-6e" transform="translate(1661.083984 0)"/>
     <use xlink:href="#DejaVuSans-67" transform="translate(1724.462891 0)"/>
     <use xlink:href="#DejaVuSans-20" transform="translate(1787.939453 0)"/>
     <use xlink:href="#DejaVuSans-48" transform="translate(1819.726562 0)"/>
     <use xlink:href="#DejaVuSans-69" transform="translate(1894.921875 0)"/>
     <use xlink:href="#DejaVuSans-73" transform="translate(1922.705078 0)"/>
     <use xlink:href="#DejaVuSans-74" transform="translate(1974.804688 0)"/>
     <use xlink:href="#DejaVuSans-6f" transform="translate(2014.013672 0)"/>
     <use xlink:href="#DejaVuSans-72" transform="translate(2075.195312 0)"/>
     <use xlink:href="#DejaVuSans-79" transform="translate(2116.308594 0)"/>
    </g>
   </g>
   <g id="legend_1">
    <g id="patch_7">
     <path d="M 309.95625 64.23625 
L 416.45 64.23625 
Q 418.45 64.23625 418.45 62.23625 
L 418.45 33.88 
Q 418.45 31.88 416.45 31.88 
L 309.95625 31.88 
Q 307.95625 31.88 307.95625 33.88 
L 307.95625 62.23625 
Q 307.95625 64.23625 309.95625 64.23625 
z
" style="fill: #ffffff; opacity: 0.8; stroke: #cccccc; stroke-linejoin: miter"/>
    </g>
    <g id="line2d_29">
     <path d="M 311.95625 39.978437 
L 321.95625 39.978437 
L 331.95625 39.978437 
" style="fill: none; stroke: #1f77b4; stroke-width: 1.5; stroke-linecap: square"/>
    </g>
    <g id="text_17">
     <!-- Train Loss -->
     <g transform="translate(339.95625 43.478437) scale(0.1 -0.1)">
      <use xlink:href="#DejaVuSans-54"/>
      <use xlink:href="#DejaVuSans-72" transform="translate(46.333984 0)"/>
      <use xlink:href="#DejaVuSans-61" transform="translate(87.447266 0)"/>
      <use xlink:href="#DejaVuSans-69" transform="translate(148.726562 0)"/>
      <use xlink:href="#DejaVuSans-6e" transform="translate(176.509766 0)"/>
      <use xlink:href="#DejaVuSans-20" transform="translate(239.888672 0)"/>
      <use xlink:href="#DejaVuSans-4c" transform="translate(271.675781 0)"/>
      <use xlink:href="#DejaVuSans-6f" transform="translate(325.638672 0)"/>
      <use xlink:href="#DejaVuSans-73" transform="translate(386.820312 0)"/>
      <use xlink:href="#DejaVuSans-73" transform="translate(438.919922 0)"/>
     </g>
    </g>
    <g id="line2d_30">
     <path d="M 311.95625 54.656563 
L 321.95625 54.656563 
L 331.95625 54.656563 
" style="fill: none; stroke: #ff7f0e; stroke-width: 1.5; stroke-linecap: square"/>
    </g>
    <g id="text_18">
     <!-- Validation Loss -->
     <g transform="translate(339.95625 58.156563) scale(0.1 -0.1)">
      <defs>
       <path id="DejaVuSans-56" d="M 1831 0 
L 50 4666 
L 709 4666 
L 2188 738 
L 3669 4666 
L 4325 4666 
L 2547 0 
L 1831 0 
z
" transform="scale(0.015625)"/>
       <path id="DejaVuSans-64" d="M 2906 2969 
L 2906 4863 
L 3481 4863 
L 3481 0 
L 2906 0 
L 2906 525 
Q 2725 213 2448 61 
Q 2172 -91 1784 -91 
Q 1150 -91 751 415 
Q 353 922 353 1747 
Q 353 2572 751 3078 
Q 1150 3584 1784 3584 
Q 2172 3584 2448 3432 
Q 2725 3281 2906 2969 
z
M 947 1747 
Q 947 1113 1208 752 
Q 1469 391 1925 391 
Q 2381 391 2643 752 
Q 2906 1113 2906 1747 
Q 2906 2381 2643 2742 
Q 2381 3103 1925 3103 
Q 1469 3103 1208 2742 
Q 947 2381 947 1747 
z
" transform="scale(0.015625)"/>
      </defs>
      <use xlink:href="#DejaVuSans-56"/>
      <use xlink:href="#DejaVuSans-61" transform="translate(60.658203 0)"/>
      <use xlink:href="#DejaVuSans-6c" transform="translate(121.9375 0)"/>
      <use xlink:href="#DejaVuSans-69" transform="translate(149.720703 0)"/>
      <use xlink:href="#DejaVuSans-64" transform="translate(177.503906 0)"/>
      <use xlink:href="#DejaVuSans-61" transform="translate(240.980469 0)"/>
      <use xlink:href="#DejaVuSans-74" transform="translate(302.259766 0)"/>
      <use xlink:href="#DejaVuSans-69" transform="translate(341.46875 0)"/>
      <use xlink:href="#DejaVuSans-6f" transform="translate(369.251953 0)"/>
      <use xlink:href="#DejaVuSans-6e" transform="translate(430.433594 0)"/>
      <use xlink:href="#DejaVuSans-20" transform="translate(493.8125 0)"/>
      <use xlink:href="#DejaVuSans-4c" transform="translate(525.599609 0)"/>
      <use xlink:href="#DejaVuSans-6f" transform="translate(579.5625 0)"/>
      <use xlink:href="#DejaVuSans-73" transform="translate(640.744141 0)"/>
      <use xlink:href="#DejaVuSans-73" transform="translate(692.84375 0)"/>
     </g>
    </g>
   </g>
  </g>
  <g id="axes_2">
   <g id="patch_8">
    <path d="M 468.02 318.04 
L 853.2 318.04 
L 853.2 26.88 
L 468.02 26.88 
z
" style="fill: #ffffff"/>
   </g>
   <g id="matplotlib.axis_3">
    <g id="xtick_7">
     <g id="line2d_31">
      <path d="M 481.991175 318.04 
L 481.991175 26.88 
" clip-path="url(#p2421a6c44d)" style="fill: none; stroke: #b0b0b0; stroke-width: 0.8; stroke-linecap: square"/>
     </g>
     <g id="line2d_32">
      <g>
       <use xlink:href="#m1c71f6b52a" x="481.991175" y="318.04" style="stroke: #000000; stroke-width: 0.8"/>
      </g>
     </g>
     <g id="text_19">
      <!-- 0 -->
      <g transform="translate(478.809925 332.638438) scale(0.1 -0.1)">
       <use xlink:href="#DejaVuSans-30"/>
      </g>
     </g>
    </g>
    <g id="xtick_8">
     <g id="line2d_33">
      <path d="M 552.731304 318.04 
L 552.731304 26.88 
" clip-path="url(#p2421a6c44d)" style="fill: none; stroke: #b0b0b0; stroke-width: 0.8; stroke-linecap: square"/>
     </g>
     <g id="line2d_34">
      <g>
       <use xlink:href="#m1c71f6b52a" x="552.731304" y="318.04" style="stroke: #000000; stroke-width: 0.8"/>
      </g>
     </g>
     <g id="text_20">
      <!-- 20 -->
      <g transform="translate(546.368804 332.638438) scale(0.1 -0.1)">
       <use xlink:href="#DejaVuSans-32"/>
       <use xlink:href="#DejaVuSans-30" transform="translate(63.623047 0)"/>
      </g>
     </g>
    </g>
    <g id="xtick_9">
     <g id="line2d_35">
      <path d="M 623.471433 318.04 
L 623.471433 26.88 
" clip-path="url(#p2421a6c44d)" style="fill: none; stroke: #b0b0b0; stroke-width: 0.8; stroke-linecap: square"/>
     </g>
     <g id="line2d_36">
      <g>
       <use xlink:href="#m1c71f6b52a" x="623.471433" y="318.04" style="stroke: #000000; stroke-width: 0.8"/>
      </g>
     </g>
     <g id="text_21">
      <!-- 40 -->
      <g transform="translate(617.108933 332.638438) scale(0.1 -0.1)">
       <use xlink:href="#DejaVuSans-34"/>
       <use xlink:href="#DejaVuSans-30" transform="translate(63.623047 0)"/>
      </g>
     </g>
    </g>
    <g id="xtick_10">
     <g id="line2d_37">
      <path d="M 694.211561 318.04 
L 694.211561 26.88 
" clip-path="url(#p2421a6c44d)" style="fill: none; stroke: #b0b0b0; stroke-width: 0.8; stroke-linecap: square"/>
     </g>
     <g id="line2d_38">
      <g>
       <use xlink:href="#m1c71f6b52a" x="694.211561" y="318.04" style="stroke: #000000; stroke-width: 0.8"/>
      </g>
     </g>
     <g id="text_22">
      <!-- 60 -->
      <g transform="translate(687.849061 332.638438) scale(0.1 -0.1)">
       <use xlink:href="#DejaVuSans-36"/>
       <use xlink:href="#DejaVuSans-30" transform="translate(63.623047 0)"/>
      </g>
     </g>
    </g>
    <g id="xtick_11">
     <g id="line2d_39">
      <path d="M 764.95169 318.04 
L 764.95169 26.88 
" clip-path="url(#p2421a6c44d)" style="fill: none; stroke: #b0b0b0; stroke-width: 0.8; stroke-linecap: square"/>
     </g>
     <g id="line2d_40">
      <g>
       <use xlink:href="#m1c71f6b52a" x="764.95169" y="318.04" style="stroke: #000000; stroke-width: 0.8"/>
      </g>
     </g>
     <g id="text_23">
      <!-- 80 -->
      <g transform="translate(758.58919 332.638438) scale(0.1 -0.1)">
       <use xlink:href="#DejaVuSans-38"/>
       <use xlink:href="#DejaVuSans-30" transform="translate(63.623047 0)"/>
      </g>
     </g>
    </g>
    <g id="xtick_12">
     <g id="line2d_41">
      <path d="M 835.691818 318.04 
L 835.691818 26.88 
" clip-path="url(#p2421a6c44d)" style="fill: none; stroke: #b0b0b0; stroke-width: 0.8; stroke-linecap: square"/>
     </g>
     <g id="line2d_42">
      <g>
       <use xlink:href="#m1c71f6b52a" x="835.691818" y="318.04" style="stroke: #000000; stroke-width: 0.8"/>
      </g>
     </g>
     <g id="text_24">
      <!-- 100 -->
      <g transform="translate(826.148068 332.638438) scale(0.1 -0.1)">
       <use xlink:href="#DejaVuSans-31"/>
       <use xlink:href="#DejaVuSans-30" transform="translate(63.623047 0)"/>
       <use xlink:href="#DejaVuSans-30" transform="translate(127.246094 0)"/>
      </g>
     </g>
    </g>
    <g id="text_25">
     <!-- Epoch -->
     <g transform="translate(645.299062 346.316563) scale(0.1 -0.1)">
      <use xlink:href="#DejaVuSans-45"/>
      <use xlink:href="#DejaVuSans-70" transform="translate(63.183594 0)"/>
      <use xlink:href="#DejaVuSans-6f" transform="translate(126.660156 0)"/>
      <use xlink:href="#DejaVuSans-63" transform="translate(187.841797 0)"/>
      <use xlink:href="#DejaVuSans-68" transform="translate(242.822266 0)"/>
     </g>
    </g>
   </g>
   <g id="matplotlib.axis_4">
    <g id="ytick_8">
     <g id="line2d_43">
      <path d="M 468.02 289.893291 
L 853.2 289.893291 
" clip-path="url(#p2421a6c44d)" style="fill: none; stroke: #b0b0b0; stroke-width: 0.8; stroke-linecap: square"/>
     </g>
     <g id="line2d_44">
      <g>
       <use xlink:href="#mb45c38f39d" x="468.02" y="289.893291" style="stroke: #000000; stroke-width: 0.8"/>
      </g>
     </g>
     <g id="text_26">
      <!-- 47 -->
      <g transform="translate(448.295 293.692509) scale(0.1 -0.1)">
       <use xlink:href="#DejaVuSans-34"/>
       <use xlink:href="#DejaVuSans-37" transform="translate(63.623047 0)"/>
      </g>
     </g>
    </g>
    <g id="ytick_9">
     <g id="line2d_45">
      <path d="M 468.02 237.700717 
L 853.2 237.700717 
" clip-path="url(#p2421a6c44d)" style="fill: none; stroke: #b0b0b0; stroke-width: 0.8; stroke-linecap: square"/>
     </g>
     <g id="line2d_46">
      <g>
       <use xlink:href="#mb45c38f39d" x="468.02" y="237.700717" style="stroke: #000000; stroke-width: 0.8"/>
      </g>
     </g>
     <g id="text_27">
      <!-- 48 -->
      <g transform="translate(448.295 241.499936) scale(0.1 -0.1)">
       <use xlink:href="#DejaVuSans-34"/>
       <use xlink:href="#DejaVuSans-38" transform="translate(63.623047 0)"/>
      </g>
     </g>
    </g>
    <g id="ytick_10">
     <g id="line2d_47">
      <path d="M 468.02 185.508143 
L 853.2 185.508143 
" clip-path="url(#p2421a6c44d)" style="fill: none; stroke: #b0b0b0; stroke-width: 0.8; stroke-linecap: square"/>
     </g>
     <g id="line2d_48">
      <g>
       <use xlink:href="#mb45c38f39d" x="468.02" y="185.508143" style="stroke: #000000; stroke-width: 0.8"/>
      </g>
     </g>
     <g id="text_28">
      <!-- 49 -->
      <g transform="translate(448.295 189.307362) scale(0.1 -0.1)">
       <defs>
        <path id="DejaVuSans-39" d="M 703 97 
L 703 672 
Q 941 559 1184 500 
Q 1428 441 1663 441 
Q 2288 441 2617 861 
Q 2947 1281 2994 2138 
Q 2813 1869 2534 1725 
Q 2256 1581 1919 1581 
Q 1219 1581 811 2004 
Q 403 2428 403 3163 
Q 403 3881 828 4315 
Q 1253 4750 1959 4750 
Q 2769 4750 3195 4129 
Q 3622 3509 3622 2328 
Q 3622 1225 3098 567 
Q 2575 -91 1691 -91 
Q 1453 -91 1209 -44 
Q 966 3 703 97 
z
M 1959 2075 
Q 2384 2075 2632 2365 
Q 2881 2656 2881 3163 
Q 2881 3666 2632 3958 
Q 2384 4250 1959 4250 
Q 1534 4250 1286 3958 
Q 1038 3666 1038 3163 
Q 1038 2656 1286 2365 
Q 1534 2075 1959 2075 
z
" transform="scale(0.015625)"/>
       </defs>
       <use xlink:href="#DejaVuSans-34"/>
       <use xlink:href="#DejaVuSans-39" transform="translate(63.623047 0)"/>
      </g>
     </g>
    </g>
    <g id="ytick_11">
     <g id="line2d_49">
      <path d="M 468.02 133.31557 
L 853.2 133.31557 
" clip-path="url(#p2421a6c44d)" style="fill: none; stroke: #b0b0b0; stroke-width: 0.8; stroke-linecap: square"/>
     </g>
     <g id="line2d_50">
      <g>
       <use xlink:href="#mb45c38f39d" x="468.02" y="133.31557" style="stroke: #000000; stroke-width: 0.8"/>
      </g>
     </g>
     <g id="text_29">
      <!-- 50 -->
      <g transform="translate(448.295 137.114789) scale(0.1 -0.1)">
       <use xlink:href="#DejaVuSans-35"/>
       <use xlink:href="#DejaVuSans-30" transform="translate(63.623047 0)"/>
      </g>
     </g>
    </g>
    <g id="ytick_12">
     <g id="line2d_51">
      <path d="M 468.02 81.122996 
L 853.2 81.122996 
" clip-path="url(#p2421a6c44d)" style="fill: none; stroke: #b0b0b0; stroke-width: 0.8; stroke-linecap: square"/>
     </g>
     <g id="line2d_52">
      <g>
       <use xlink:href="#mb45c38f39d" x="468.02" y="81.122996" style="stroke: #000000; stroke-width: 0.8"/>
      </g>
     </g>
     <g id="text_30">
      <!-- 51 -->
      <g transform="translate(448.295 84.922215) scale(0.1 -0.1)">
       <use xlink:href="#DejaVuSans-35"/>
       <use xlink:href="#DejaVuSans-31" transform="translate(63.623047 0)"/>
      </g>
     </g>
    </g>
    <g id="ytick_13">
     <g id="line2d_53">
      <path d="M 468.02 28.930423 
L 853.2 28.930423 
" clip-path="url(#p2421a6c44d)" style="fill: none; stroke: #b0b0b0; stroke-width: 0.8; stroke-linecap: square"/>
     </g>
     <g id="line2d_54">
      <g>
       <use xlink:href="#mb45c38f39d" x="468.02" y="28.930423" style="stroke: #000000; stroke-width: 0.8"/>
      </g>
     </g>
     <g id="text_31">
      <!-- 52 -->
      <g transform="translate(448.295 32.729641) scale(0.1 -0.1)">
       <use xlink:href="#DejaVuSans-35"/>
       <use xlink:href="#DejaVuSans-32" transform="translate(63.623047 0)"/>
      </g>
     </g>
    </g>
    <g id="text_32">
     <!-- Accuracy -->
     <g transform="translate(442.215312 195.288125) rotate(-90) scale(0.1 -0.1)">
      <defs>
       <path id="DejaVuSans-41" d="M 2188 4044 
L 1331 1722 
L 3047 1722 
L 2188 4044 
z
M 1831 4666 
L 2547 4666 
L 4325 0 
L 3669 0 
L 3244 1197 
L 1141 1197 
L 716 0 
L 50 0 
L 1831 4666 
z
" transform="scale(0.015625)"/>
       <path id="DejaVuSans-75" d="M 544 1381 
L 544 3500 
L 1119 3500 
L 1119 1403 
Q 1119 906 1312 657 
Q 1506 409 1894 409 
Q 2359 409 2629 706 
Q 2900 1003 2900 1516 
L 2900 3500 
L 3475 3500 
L 3475 0 
L 2900 0 
L 2900 538 
Q 2691 219 2414 64 
Q 2138 -91 1772 -91 
Q 1169 -91 856 284 
Q 544 659 544 1381 
z
M 1991 3584 
L 1991 3584 
z
" transform="scale(0.015625)"/>
      </defs>
      <use xlink:href="#DejaVuSans-41"/>
      <use xlink:href="#DejaVuSans-63" transform="translate(66.658203 0)"/>
      <use xlink:href="#DejaVuSans-63" transform="translate(121.638672 0)"/>
      <use xlink:href="#DejaVuSans-75" transform="translate(176.619141 0)"/>
      <use xlink:href="#DejaVuSans-72" transform="translate(239.998047 0)"/>
      <use xlink:href="#DejaVuSans-61" transform="translate(281.111328 0)"/>
      <use xlink:href="#DejaVuSans-63" transform="translate(342.390625 0)"/>
      <use xlink:href="#DejaVuSans-79" transform="translate(397.371094 0)"/>
     </g>
    </g>
   </g>
   <g id="line2d_55">
    <path d="M 485.528182 73.666914 
L 489.065188 40.114545 
L 492.602195 166.867939 
L 496.139201 207.876389 
L 499.676208 62.482791 
L 503.213214 137.043611 
L 506.75022 144.499693 
L 510.287227 271.253086 
L 513.824233 69.938873 
L 517.36124 174.32402 
L 520.898246 148.227734 
L 524.435253 140.771652 
L 527.972259 133.31557 
L 531.509265 226.516594 
L 535.046272 204.148348 
L 538.583278 40.114545 
L 542.120285 252.612881 
L 545.657291 219.060512 
L 549.194298 304.805455 
L 552.731304 211.60443 
L 556.26831 271.253086 
L 559.805317 222.788553 
L 563.342323 118.403406 
L 566.87933 122.131447 
L 570.416336 230.244635 
L 573.953343 230.244635 
L 577.490349 144.499693 
L 581.027355 226.516594 
L 584.564362 163.139898 
L 588.101368 248.88484 
L 591.638375 267.525045 
L 595.175381 207.876389 
L 598.712388 129.587529 
L 602.249394 133.31557 
L 605.7864 133.31557 
L 609.323407 133.31557 
L 612.860413 118.403406 
L 616.39742 155.683816 
L 619.934426 200.420307 
L 623.471433 122.131447 
L 627.008439 133.31557 
L 630.545445 133.31557 
L 634.082452 151.955775 
L 637.619458 140.771652 
L 641.156465 144.499693 
L 644.693471 118.403406 
L 648.230478 174.32402 
L 651.767484 129.587529 
L 655.30449 122.131447 
L 658.841497 118.403406 
L 662.378503 129.587529 
L 665.91551 155.683816 
L 669.452516 163.139898 
L 672.989522 140.771652 
L 676.526529 140.771652 
L 680.063535 140.771652 
L 683.600542 137.043611 
L 687.137548 114.675365 
L 690.674555 125.859488 
L 694.211561 148.227734 
L 697.748567 137.043611 
L 701.285574 129.587529 
L 704.82258 103.491242 
L 708.359587 155.683816 
L 711.896593 151.955775 
L 715.4336 137.043611 
L 718.970606 155.683816 
L 722.507612 151.955775 
L 726.044619 133.31557 
L 729.581625 122.131447 
L 733.118632 137.043611 
L 736.655638 148.227734 
L 740.192645 122.131447 
L 743.729651 148.227734 
L 747.266657 122.131447 
L 750.803664 122.131447 
L 754.34067 125.859488 
L 757.877677 148.227734 
L 761.414683 118.403406 
L 764.95169 122.131447 
L 768.488696 140.771652 
L 772.025702 133.31557 
L 775.562709 122.131447 
L 779.099715 170.59598 
L 782.636722 133.31557 
L 786.173728 129.587529 
L 789.710735 133.31557 
L 793.247741 125.859488 
L 796.784747 107.219283 
L 800.321754 144.499693 
L 803.85876 125.859488 
L 807.395767 140.771652 
L 810.932773 103.491242 
L 814.46978 140.771652 
L 818.006786 125.859488 
L 821.543792 122.131447 
L 825.080799 133.31557 
L 828.617805 129.587529 
L 832.154812 140.771652 
L 835.691818 114.675365 
" clip-path="url(#p2421a6c44d)" style="fill: none; stroke: #1f77b4; stroke-width: 1.5; stroke-linecap: square"/>
   </g>
   <g id="line2d_56">
    <path d="M 485.528182 133.31557 
L 489.065188 133.31557 
L 492.602195 133.31557 
L 496.139201 133.31557 
L 499.676208 133.31557 
L 503.213214 133.31557 
L 506.75022 133.31557 
L 510.287227 133.31557 
L 513.824233 133.31557 
L 517.36124 133.31557 
L 520.898246 133.31557 
L 524.435253 133.31557 
L 527.972259 133.31557 
L 531.509265 133.31557 
L 535.046272 133.31557 
L 538.583278 133.31557 
L 542.120285 133.31557 
L 545.657291 133.31557 
L 549.194298 133.31557 
L 552.731304 133.31557 
L 556.26831 133.31557 
L 559.805317 133.31557 
L 563.342323 133.31557 
L 566.87933 133.31557 
L 570.416336 133.31557 
L 573.953343 133.31557 
L 577.490349 133.31557 
L 581.027355 133.31557 
L 584.564362 133.31557 
L 588.101368 133.31557 
L 591.638375 133.31557 
L 595.175381 133.31557 
L 598.712388 133.31557 
L 602.249394 133.31557 
L 605.7864 133.31557 
L 609.323407 133.31557 
L 612.860413 133.31557 
L 616.39742 133.31557 
L 619.934426 133.31557 
L 623.471433 133.31557 
L 627.008439 133.31557 
L 630.545445 133.31557 
L 634.082452 133.31557 
L 637.619458 133.31557 
L 641.156465 133.31557 
L 644.693471 133.31557 
L 648.230478 133.31557 
L 651.767484 133.31557 
L 655.30449 133.31557 
L 658.841497 133.31557 
L 662.378503 133.31557 
L 665.91551 133.31557 
L 669.452516 133.31557 
L 672.989522 133.31557 
L 676.526529 133.31557 
L 680.063535 133.31557 
L 683.600542 133.31557 
L 687.137548 133.31557 
L 690.674555 133.31557 
L 694.211561 133.31557 
L 697.748567 133.31557 
L 701.285574 133.31557 
L 704.82258 133.31557 
L 708.359587 133.31557 
L 711.896593 133.31557 
L 715.4336 133.31557 
L 718.970606 133.31557 
L 722.507612 133.31557 
L 726.044619 133.31557 
L 729.581625 133.31557 
L 733.118632 133.31557 
L 736.655638 133.31557 
L 740.192645 133.31557 
L 743.729651 133.31557 
L 747.266657 133.31557 
L 750.803664 133.31557 
L 754.34067 133.31557 
L 757.877677 133.31557 
L 761.414683 133.31557 
L 764.95169 133.31557 
L 768.488696 133.31557 
L 772.025702 133.31557 
L 775.562709 133.31557 
L 779.099715 133.31557 
L 782.636722 133.31557 
L 786.173728 133.31557 
L 789.710735 133.31557 
L 793.247741 133.31557 
L 796.784747 133.31557 
L 800.321754 133.31557 
L 803.85876 133.31557 
L 807.395767 133.31557 
L 810.932773 133.31557 
L 814.46978 133.31557 
L 818.006786 133.31557 
L 821.543792 133.31557 
L 825.080799 133.31557 
L 828.617805 133.31557 
L 832.154812 133.31557 
L 835.691818 133.31557 
" clip-path="url(#p2421a6c44d)" style="fill: none; stroke: #ff7f0e; stroke-width: 1.5; stroke-linecap: square"/>
   </g>
   <g id="patch_9">
    <path d="M 468.02 318.04 
L 468.02 26.88 
" style="fill: none; stroke: #000000; stroke-width: 0.8; stroke-linejoin: miter; stroke-linecap: square"/>
   </g>
   <g id="patch_10">
    <path d="M 853.2 318.04 
L 853.2 26.88 
" style="fill: none; stroke: #000000; stroke-width: 0.8; stroke-linejoin: miter; stroke-linecap: square"/>
   </g>
   <g id="patch_11">
    <path d="M 468.02 318.04 
L 853.2 318.04 
" style="fill: none; stroke: #000000; stroke-width: 0.8; stroke-linejoin: miter; stroke-linecap: square"/>
   </g>
   <g id="patch_12">
    <path d="M 468.02 26.88 
L 853.2 26.88 
" style="fill: none; stroke: #000000; stroke-width: 0.8; stroke-linejoin: miter; stroke-linecap: square"/>
   </g>
   <g id="text_33">
    <!-- Accuracy - Classical NN Training History -->
    <g transform="translate(541.428437 20.88) scale(0.12 -0.12)">
     <use xlink:href="#DejaVuSans-41"/>
     <use xlink:href="#DejaVuSans-63" transform="translate(66.658203 0)"/>
     <use xlink:href="#DejaVuSans-63" transform="translate(121.638672 0)"/>
     <use xlink:href="#DejaVuSans-75" transform="translate(176.619141 0)"/>
     <use xlink:href="#DejaVuSans-72" transform="translate(239.998047 0)"/>
     <use xlink:href="#DejaVuSans-61" transform="translate(281.111328 0)"/>
     <use xlink:href="#DejaVuSans-63" transform="translate(342.390625 0)"/>
     <use xlink:href="#DejaVuSans-79" transform="translate(397.371094 0)"/>
     <use xlink:href="#DejaVuSans-20" transform="translate(456.550781 0)"/>
     <use xlink:href="#DejaVuSans-2d" transform="translate(488.337891 0)"/>
     <use xlink:href="#DejaVuSans-20" transform="translate(524.421875 0)"/>
     <use xlink:href="#DejaVuSans-43" transform="translate(556.208984 0)"/>
     <use xlink:href="#DejaVuSans-6c" transform="translate(626.033203 0)"/>
     <use xlink:href="#DejaVuSans-61" transform="translate(653.816406 0)"/>
     <use xlink:href="#DejaVuSans-73" transform="translate(715.095703 0)"/>
     <use xlink:href="#DejaVuSans-73" transform="translate(767.195312 0)"/>
     <use xlink:href="#DejaVuSans-69" transform="translate(819.294922 0)"/>
     <use xlink:href="#DejaVuSans-63" transform="translate(847.078125 0)"/>
     <use xlink:href="#DejaVuSans-61" transform="translate(902.058594 0)"/>
     <use xlink:href="#DejaVuSans-6c" transform="translate(963.337891 0)"/>
     <use xlink:href="#DejaVuSans-20" transform="translate(991.121094 0)"/>
     <use xlink:href="#DejaVuSans-4e" transform="translate(1022.908203 0)"/>
     <use xlink:href="#DejaVuSans-4e" transform="translate(1097.712891 0)"/>
     <use xlink:href="#DejaVuSans-20" transform="translate(1172.517578 0)"/>
     <use xlink:href="#DejaVuSans-54" transform="translate(1204.304688 0)"/>
     <use xlink:href="#DejaVuSans-72" transform="translate(1250.638672 0)"/>
     <use xlink:href="#DejaVuSans-61" transform="translate(1291.751953 0)"/>
     <use xlink:href="#DejaVuSans-69" transform="translate(1353.03125 0)"/>
     <use xlink:href="#DejaVuSans-6e" transform="translate(1380.814453 0)"/>
     <use xlink:href="#DejaVuSans-69" transform="translate(1444.193359 0)"/>
     <use xlink:href="#DejaVuSans-6e" transform="translate(1471.976562 0)"/>
     <use xlink:href="#DejaVuSans-67" transform="translate(1535.355469 0)"/>
     <use xlink:href="#DejaVuSans-20" transform="translate(1598.832031 0)"/>
     <use xlink:href="#DejaVuSans-48" transform="translate(1630.619141 0)"/>
     <use xlink:href="#DejaVuSans-69" transform="translate(1705.814453 0)"/>
     <use xlink:href="#DejaVuSans-73" transform="translate(1733.597656 0)"/>
     <use xlink:href="#DejaVuSans-74" transform="translate(1785.697266 0)"/>
     <use xlink:href="#DejaVuSans-6f" transform="translate(1824.90625 0)"/>
     <use xlink:href="#DejaVuSans-72" transform="translate(1886.087891 0)"/>
     <use xlink:href="#DejaVuSans-79" transform="translate(1927.201172 0)"/>
    </g>
   </g>
   <g id="legend_2">
    <g id="patch_13">
     <path d="M 715.984375 64.23625 
L 846.2 64.23625 
Q 848.2 64.23625 848.2 62.23625 
L 848.2 33.88 
Q 848.2 31.88 846.2 31.88 
L 715.984375 31.88 
Q 713.984375 31.88 713.984375 33.88 
L 713.984375 62.23625 
Q 713.984375 64.23625 715.984375 64.23625 
z
" style="fill: #ffffff; opacity: 0.8; stroke: #cccccc; stroke-linejoin: miter"/>
    </g>
    <g id="line2d_57">
     <path d="M 717.984375 39.978437 
L 727.984375 39.978437 
L 737.984375 39.978437 
" style="fill: none; stroke: #1f77b4; stroke-width: 1.5; stroke-linecap: square"/>
    </g>
    <g id="text_34">
     <!-- Train Accuracy -->
     <g transform="translate(745.984375 43.478437) scale(0.1 -0.1)">
      <use xlink:href="#DejaVuSans-54"/>
      <use xlink:href="#DejaVuSans-72" transform="translate(46.333984 0)"/>
      <use xlink:href="#DejaVuSans-61" transform="translate(87.447266 0)"/>
      <use xlink:href="#DejaVuSans-69" transform="translate(148.726562 0)"/>
      <use xlink:href="#DejaVuSans-6e" transform="translate(176.509766 0)"/>
      <use xlink:href="#DejaVuSans-20" transform="translate(239.888672 0)"/>
      <use xlink:href="#DejaVuSans-41" transform="translate(271.675781 0)"/>
      <use xlink:href="#DejaVuSans-63" transform="translate(338.333984 0)"/>
      <use xlink:href="#DejaVuSans-63" transform="translate(393.314453 0)"/>
      <use xlink:href="#DejaVuSans-75" transform="translate(448.294922 0)"/>
      <use xlink:href="#DejaVuSans-72" transform="translate(511.673828 0)"/>
      <use xlink:href="#DejaVuSans-61" transform="translate(552.787109 0)"/>
      <use xlink:href="#DejaVuSans-63" transform="translate(614.066406 0)"/>
      <use xlink:href="#DejaVuSans-79" transform="translate(669.046875 0)"/>
     </g>
    </g>
    <g id="line2d_58">
     <path d="M 717.984375 54.656563 
L 727.984375 54.656563 
L 737.984375 54.656563 
" style="fill: none; stroke: #ff7f0e; stroke-width: 1.5; stroke-linecap: square"/>
    </g>
    <g id="text_35">
     <!-- Validation Accuracy -->
     <g transform="translate(745.984375 58.156563) scale(0.1 -0.1)">
      <use xlink:href="#DejaVuSans-56"/>
      <use xlink:href="#DejaVuSans-61" transform="translate(60.658203 0)"/>
      <use xlink:href="#DejaVuSans-6c" transform="translate(121.9375 0)"/>
      <use xlink:href="#DejaVuSans-69" transform="translate(149.720703 0)"/>
      <use xlink:href="#DejaVuSans-64" transform="translate(177.503906 0)"/>
      <use xlink:href="#DejaVuSans-61" transform="translate(240.980469 0)"/>
      <use xlink:href="#DejaVuSans-74" transform="translate(302.259766 0)"/>
      <use xlink:href="#DejaVuSans-69" transform="translate(341.46875 0)"/>
      <use xlink:href="#DejaVuSans-6f" transform="translate(369.251953 0)"/>
      <use xlink:href="#DejaVuSans-6e" transform="translate(430.433594 0)"/>
      <use xlink:href="#DejaVuSans-20" transform="translate(493.8125 0)"/>
      <use xlink:href="#DejaVuSans-41" transform="translate(525.599609 0)"/>
      <use xlink:href="#DejaVuSans-63" transform="translate(592.257812 0)"/>
      <use xlink:href="#DejaVuSans-63" transform="translate(647.238281 0)"/>
      <use xlink:href="#DejaVuSans-75" transform="translate(702.21875 0)"/>
      <use xlink:href="#DejaVuSans-72" transform="translate(765.597656 0)"/>
      <use xlink:href="#DejaVuSans-61" transform="translate(806.710938 0)"/>
      <use xlink:href="#DejaVuSans-63" transform="translate(867.990234 0)"/>
      <use xlink:href="#DejaVuSans-79" transform="translate(922.970703 0)"/>
     </g>
    </g>
   </g>
  </g>
 </g>
 <defs>
  <clipPath id="pd3f27cab92">
   <rect x="38.27" y="26.88" width="385.18" height="291.16"/>
  </clipPath>
  <clipPath id="p2421a6c44d">
   <rect x="468.02" y="26.88" width="385.18" height="291.16"/>
  </clipPath>
 </defs>
</svg>
